<?xml version="1.0" encoding="utf-8"?>
<!-- Generator: Adobe Illustrator 25.2.1, SVG Export Plug-In . SVG Version: 6.00 Build 0)  -->
<svg version="1.1" id="Camada_1" xmlns="http://www.w3.org/2000/svg" xmlns:xlink="http://www.w3.org/1999/xlink" x="0px" y="0px"
	 viewBox="0 0 2400 2400" style="enable-background:new 0 0 2400 2400;" xml:space="preserve">
<style type="text/css">
	.st0{fill:#0F0D13;}
</style>
<g>
	<path class="st0" d="M1195.72,1155.22c-5.92,38.29-8.03,76.91-10.83,115.5c-4.67,64.38-5.2,128.89-7.16,193.35
		c-1.66,54.78-0.89,109.64-1.2,164.47c-0.05,8.86-0.1,17.71-0.28,26.57c-0.06,3.14-2.86,6.29-5.84,6.66
		c-41.34,5.25-79.34,20.39-116.13,39.14c-25.15,12.82-49.31,27.34-73.32,42.13c-5.47,3.37-11.11,6.49-16.71,9.65
		c-1.91,1.08-5.19-0.61-5.39-2.68c-2.35-24.06-4.83-48.09-6.79-72.2c-5.37-66.03-5.05-132.12-3.42-198.22
		c0.91-37.07,3.57-74.07,7.72-110.94c1.89-16.82,3.82-33.63,5.52-50.46c3.66-36.11,9.65-71.88,16.32-107.5
		c12.02-64.16,27.56-127.5,47.64-189.65c22.83-70.67,50.8-139.15,87.25-203.99c21.37-38.02,45.4-74.24,73.56-107.62
		c3.11-3.69,6.43-7.21,9.69-10.78c1.59-1.74,5.1-2.07,6.48-0.6c2.75,2.94,5.53,5.84,8.12,8.91c33.39,39.61,61.2,82.95,85.63,128.53
		c33.97,63.39,60.43,129.91,81.77,198.48c18.92,60.8,33.96,122.56,45.13,185.29c8.06,45.24,14.41,90.67,19.48,136.34
		c8.64,77.89,10.65,155.97,9.59,234.24c-0.57,41.96-3.4,83.76-6.64,125.56c-0.19,2.41-0.37,4.82-0.63,7.23
		c-2.67,24.36-3.85,29.88-6.29,29.45c-9.87-1.72-17.08-8.57-25.25-13.48c-25.55-15.37-51.27-30.4-78.18-43.3
		c-26.22-12.57-53.11-23.23-81.65-29.28c-7.87-1.67-15.82-2.9-23.74-4.34c-3.03-0.55-5.75-3.51-5.8-6.67
		c-0.16-9.67-0.21-19.33-0.27-29c-0.41-62.89,0.11-125.8-1.49-188.67c-1.46-57.21-2.97-114.44-6.89-171.58
		c-1.88-27.35-3.95-54.67-6.51-81.95c-1.05-11.21-3.21-22.32-4.87-33.48C1193.3,1137.57,1200.31,1156.61,1195.72,1155.22z"/>
	<path class="st0" d="M1645.96,2175.45c-13.87,0.1-27.12-3.4-40.3-7.14c-19.46-5.52-37.86-13.77-55.56-23.36
		c-20.52-11.13-40.77-22.81-60.75-34.89c-26.19-15.84-51.92-32.44-78-48.48c-25.39-15.61-51.23-30.46-78.23-43.16
		c-24.08-11.32-48.82-20.7-74.76-27.14c-43.38-10.78-86.19-9.02-128.87,3.34c-25.62,7.42-49.99,17.84-73.75,29.86
		c-25.91,13.11-50.79,27.97-75.4,43.32c-25.97,16.2-51.78,32.67-77.84,48.73c-22.63,13.95-45.75,27.07-69.99,38.06
		c-15.41,6.99-31.27,12.66-47.74,16.86c-24.23,6.18-47.86,4.53-71.47-2.86c-13.87-4.34-27.27-9.71-40.39-15.92
		c-20.41-9.67-40.04-20.76-59.16-32.73c-34.14-21.37-68.18-42.91-102.14-64.57c-6.09-3.88-11.8-8.43-17.34-13.08
		c-80.8-67.82-150.43-145.66-209.1-233.32c-2.21-3.3-3.99-6.93-5.53-10.59c-0.38-0.91,0.73-3.45,1.61-3.72
		c20.77-6.21,41.49-4.04,62,1.2c17.21,4.4,33.57,11.25,49.49,19.08c20.98,10.32,41.23,21.95,60.99,34.41
		c23.17,14.61,46.2,29.44,69.35,44.07c26.56,16.79,53.36,33.16,81.43,47.35c26.65,13.47,54.1,24.7,83.05,32.44
		c48.88,13.07,97.21,11.18,145.41-3.22c28.66-8.57,56.13-20.05,82.27-34.47c24.67-13.6,49.01-27.85,73.13-42.42
		c23.44-14.16,46.21-29.42,69.67-43.55c19.3-11.63,39.03-22.58,58.85-33.31c14.16-7.67,29.14-13.55,44.49-18.6
		c26.21-8.61,52.12-8.49,78.31-0.01c15.37,4.98,30.16,11.17,44.63,18.28c20.99,10.3,41.19,22.02,61.06,34.3
		c25.35,15.68,50.56,31.57,75.9,47.27c25.34,15.7,51.01,30.84,77.74,44.07c21.66,10.71,43.92,19.92,66.98,27.38
		c53.09,17.18,105.99,17.17,159.25,0.87c29.38-8.99,57.44-20.93,84.76-34.8c28.75-14.6,56.48-30.99,84-47.74
		c26.83-16.33,53.6-32.78,80.6-48.84c20.77-12.36,42-23.9,64.2-33.54c14.82-6.44,30.07-11.45,46.22-13.52
		c11.51-1.48,22.43,0.86,33.23,4.25c0.96,0.3,2.09,2.88,1.75,3.98c-0.94,3.01-2.29,6.01-4.04,8.63
		c-37.2,55.81-79.11,107.84-125.8,156.01c-34.27,35.36-70.55,68.52-109.37,98.83c-10.14,7.92-20.68,15.44-31.67,22.1
		c-28.23,17.12-56.56,34.11-85.35,50.27c-23.88,13.41-48.67,25.09-75.15,32.7C1674.71,2172.17,1660.65,2175.65,1645.96,2175.45z"/>
	<path class="st0" d="M754.02,1851c-13.92,0.27-27.18-3.14-40.38-6.82c-17.13-4.78-33.23-12.12-49.11-20.02
		c-23.11-11.5-45.15-24.85-66.93-38.63c-25.19-15.93-50.21-32.14-75.5-47.9c-28.04-17.46-56.61-34-86.85-47.47
		c-22.11-9.85-44.77-17.8-68.37-23.51c-44.22-10.69-87.86-8.68-131.34,3.51c-0.77,0.22-1.5,0.74-2.27,0.81
		c-7.83,0.71-14.44,7.47-22.98,4.59c-3.46-6.29-7.3-12.39-10.3-18.89c-16.56-35.83-30.84-72.58-43.6-109.93
		c-1.04-3.04-1.82-6.19-2.42-9.35c-0.65-3.45,0.71-6.65,3.49-8.38c30.75-19.2,61.59-38.23,95.8-50.95
		c10.59-3.94,21.33-6.99,32.41-9.36c21.18-4.53,41.6-1.61,62.01,4.1c17.15,4.79,33.52,11.54,49.13,19.96
		c19.13,10.31,38.16,20.87,56.72,32.15c23.4,14.22,46.26,29.33,69.41,43.98c27.23,17.23,54.73,34,83.55,48.5
		c28.86,14.52,58.61,26.74,90.26,33.68c30.92,6.78,62.08,9.66,93.56,3.76c7.12-1.34,14.33-2.2,21.5-3.29
		c4.7-0.71,7.26,1.25,7.78,6.45c0.8,8.02,1.56,16.05,2.01,24.09c2.57,45.09,7.41,89.93,14.28,134.55c0.36,2.37,0.84,4.93,0.3,7.17
		c-0.52,2.15-1.83,4.96-3.61,5.84C807.8,1841.86,781.84,1849.94,754.02,1851z"/>
	<path class="st0" d="M2187.86,1678.66c-1.6-0.07-3.3,0.19-4.78-0.27c-6.14-1.92-12.26-3.94-18.31-6.14
		c-19.07-6.96-38.93-10.27-58.98-12.33c-21.09-2.17-41.8,1.28-62.3,5.84c-27.68,6.15-53.67,16.95-79.1,29.24
		c-23.95,11.58-47.08,24.67-69.85,38.4c-28.97,17.47-57.81,35.18-86.76,52.68c-26.9,16.26-54.27,31.67-83.06,44.36
		c-16.22,7.15-32.84,13.07-50.21,17.06c-19.29,4.43-38.27,4.28-57.42-0.43c-16.49-4.06-32.31-9.86-47.57-17.25
		c-4.02-1.95-5.51-5.15-4.75-10.05c8.19-52.6,13.02-105.55,16.84-158.61c0.12-1.61,0.29-3.21,0.45-4.81c0.42-4.24,2.3-5.97,5.9-5.39
		c7.15,1.15,14.34,2.15,21.45,3.51c32.28,6.2,64.15,3.21,95.9-3.91c31.62-7.1,61.51-18.96,90.6-32.9
		c27.62-13.23,54.28-28.28,80.46-44.15c26.87-16.28,53.5-32.96,80.53-48.98c19.39-11.49,39.13-22.42,58.95-33.15
		c14.17-7.67,28.88-14.35,44.4-18.81c9.26-2.66,18.74-4.93,28.27-6.12c11.38-1.43,22.5,1.71,33.18,5.27
		c10.66,3.55,21.16,7.85,31.27,12.78c30.46,14.86,59.13,32.83,87.47,51.33c4.72,3.08,5.6,6.35,3.43,12.59
		c-14.32,41.08-30.26,81.51-48.93,120.83c-1.36,2.85-3.33,5.42-5.12,8.05C2189.39,1677.91,2188.52,1678.21,2187.86,1678.66z"/>
	<path class="st0" d="M1207.43,2300.47c-53.56-0.29-100.2-3.23-146.58-9.09c-43.94-5.56-87.38-14.18-130.38-24.84
		c-3.87-0.96-7.52-2.78-11.23-4.32c-0.4-0.17-0.75-1.12-0.67-1.63c0.13-0.75,0.5-1.65,1.07-2.08c1.92-1.45,3.89-2.9,6.01-4.03
		c31.99-17.08,62.42-36.76,93.15-55.93c21.86-13.64,43.71-27.29,65.82-40.5c17.97-10.74,36.78-19.91,55.88-28.52
		c39.77-17.92,79.4-18.04,119.27-0.49c17.7,7.79,35.18,15.98,51.85,25.79c20.12,11.84,40.19,23.77,60.02,36.08
		c34.88,21.65,69.31,44.05,105.49,63.55c2.07,1.11,3.82,2.86,5.59,4.45c0.55,0.49,0.94,1.45,0.91,2.17
		c-0.02,0.48-0.86,1.16-1.46,1.33c-10.03,2.92-19.97,6.27-30.14,8.55c-42.43,9.53-85.14,17.33-128.43,22.18
		C1282.72,2297.72,1241.72,2299.37,1207.43,2300.47z"/>
	<path class="st0" d="M2284.65,1014.11c-11.37-66.1-28.31-130.65-51.75-193.41c-70.4-188.54-183.41-346.95-339.55-473.81
		c-183.92-149.44-395-230.76-631.39-245.42c-78.24-4.85-156.26-0.51-233.83,12.04c-69.4,11.23-137.22,28.19-203.09,52.66
		c-231.33,85.96-414.49,232.61-549.17,439.14c-102.91,157.79-159.92,331.55-173.16,519.3c-6.32,89.56-1.72,178.88,14.47,267.39
		c0.55,3.03,4.39,4.61,7.5,2.92c7.79-4.22,15.5-8.58,23.3-12.78c26.3-14.15,53.44-26.19,82.09-34.94
		c46.61-14.23,93.33-15.97,140.71-4.11c29.88,7.48,58.13,18.9,85.55,32.67c25.23,12.67,49.45,27.1,73.34,42.1
		c23.2,14.57,46.17,29.51,69.33,44.15c21.8,13.78,43.93,26.98,67,38.57c15.88,7.97,32.26,14.61,49.21,19.88
		c33.08,10.29,65.24,6.69,96.77-6.42c3.25-1.35,5.05-3.75,5.24-7.3c0.04-0.81,0.13-1.61,0.14-2.41
		c0.85-50.82,4.11-101.5,9.51-152.03c3.43-32.05,6.63-64.16,11.41-96.02c8.37-55.77,18.96-111.14,32.4-165.95
		c18.83-76.78,42.51-151.96,73.26-224.83c26.69-63.25,58.67-123.65,97.04-180.68c42.73-63.5,95.81-117.19,154.93-165.26
		c5.06-4.11,6.92-4.09,12.43,0.83c14.42,12.91,28.81,25.85,43.05,38.95c24.97,22.97,47.96,47.79,69.13,74.32
		c37.84,47.43,69.78,98.62,97.59,152.46c43.42,84.07,75.93,172.32,100.99,263.41c16.68,60.62,29.76,122.01,40,184.07
		c7.09,42.98,12.67,86.13,16.88,129.42c4.05,41.71,6.7,83.56,7.43,125.53c0.44,25.71-2.98,23.19,23.29,31.41
		c0.77,0.24,1.5,0.62,2.28,0.81c16.49,4.03,33.08,7.88,50.16,5.07c11.1-1.82,22.17-3.84,32.99-7.33
		c18.46-5.96,36.1-13.75,53.44-22.31c26.75-13.21,52.38-28.43,77.87-43.89c28.93-17.55,57.81-35.2,86.86-52.55
		c21.45-12.81,43.47-24.61,66.23-34.95c21.29-9.67,43.02-18.24,65.93-23.31c26.12-5.78,52.22-8.49,79.12-4.12
		c26.52,4.3,51.61,12.45,76.03,23.1c22.18,9.68,43.46,21.19,64.04,33.87c19.54,12.04,20.41,10.94,23.01-9.63
		c2.22-17.58,5.83-34.98,8.01-52.56c5.37-43.26,7.52-86.73,7.32-132.06C2300.38,1138.81,2295.34,1076.28,2284.65,1014.11z
		 M1640.21,688.44c-2.25,2.25-4.81,4.19-7.28,6.22c-1.64,1.35-5.41,0.45-6.06-1.43c-1.32-3.79-2.32-7.71-3.93-11.37
		c-2.35-5.37-2.92-10.66-1.67-16.45c0.67-3.12-0.77-6.25-3.57-8.4c-8.37-6.42-17.61-11.19-27.43-15
		c-19.77-7.67-40.35-10.7-61.42-11.38c-5.07-0.16-9.34,1.69-13.8,3.63c-5.41,2.36-10.79,1.91-16.2-0.91
		c-4.72-2.46-5.77-5.24-2.3-8.53c21.33-20.22,46.21-31.79,77.56-31.25c12.4-0.99,25.73,2.37,39.01,5.62
		c4.6,1.13,9.03,3.41,13.21,5.75c4.9,2.74,9.95,5.58,14.04,9.34c6.9,6.32,12.71,7.38,20.86,1.29c10.98-8.21,23.8-13.36,37.15-16.84
		c19.06-4.97,38.04-5.32,57.36-0.78c27.13,6.37,51.42,18.01,72.54,36.22c1.26,1.09,0.77,5.67-0.67,6.46
		c-0.71,0.39-1.4,0.79-2.11,1.18c-10.97,6.05-22.86,7.69-35.08,6.59c-8.8-0.79-17.61-2.04-26.23-3.92
		c-11.13-2.44-22.29-3.02-33.6-2.61c-6.05,0.22-10.91,2.91-14.69,7.3c-4.19,4.87-7.75,10.28-11.91,15.18
		c-3.17,3.74-7.23,6.26-12.3,6.99c-7.97,1.15-15.86,2.95-23.86,3.72C1656.85,676.12,1647.89,680.76,1640.21,688.44z M2113.44,929.64
		c-18.96,6.2-38.02,6.09-56.86-0.1c-11.44-3.76-22.57-8.46-33.79-12.85c-9.74-3.82-19.5-7.53-29.93-9.03
		c-3.19-0.46-6.36-1.09-9.56-1.29c-8.38-0.53-15.94,1.75-22.24,7.41c-4.78,4.3-9.29,8.91-14.04,13.24
		c-6.88,6.29-15.04,9.15-24.36,8.46c-9.63-0.71-19.26-1.42-28.88-2.26c-14.23-1.25-27,2.74-38.87,10.35
		c-4.71,3.02-9.53,5.9-14.49,8.46c-0.88,0.45-3.13-0.69-4.06-1.71c-0.98-1.09-1.43-2.89-1.61-4.44c-0.83-7.19-1.04-14.47-2.33-21.57
		c-0.94-5.2-0.06-9.65,2.94-13.62c3.8-5.03,1.59-8.92-1.76-12.77c-11.76-13.52-25.88-24.12-41.49-32.72
		c-27.74-15.29-57.41-24.93-88.68-29.8c-7.94-1.24-15.86-2.6-23.77-3.99c-0.73-0.13-1.97-0.93-1.92-1.27
		c0.19-1.35,0.39-3.23,1.31-3.88c24.34-17.09,51.22-26.65,85.64-26.92c26.77,0.23,55.85,8.97,82.88,24.15
		c7.55,4.24,13.68,11.15,20.06,17.26c5.22,5,9.67,10.8,14.85,15.84c1.46,1.42,4.62,2.41,6.47,1.85c5.35-1.61,10.36-4.33,15.64-6.22
		c17.5-6.29,35.47-10.5,54.13-11.08c26.24-0.8,51.11,5.23,74.79,16.12c32.76,15.06,59.8,37.54,82.86,65.03
		C2118.34,924.61,2116.77,928.55,2113.44,929.64z"/>
</g>
</svg>
