<?xml version="1.0" encoding="utf-8"?>
<!-- Generator: Adobe Illustrator 25.2.1, SVG Export Plug-In . SVG Version: 6.00 Build 0)  -->
<svg version="1.1" id="Camada_1" xmlns="http://www.w3.org/2000/svg" xmlns:xlink="http://www.w3.org/1999/xlink" x="0px" y="0px"
	 viewBox="0 0 2360.88 2360.88" style="enable-background:new 0 0 2360.88 2360.88;" xml:space="preserve">
<g>
	<path d="M1174.07,1032.2c-2.4,18.72-3.52,37.54-4.66,56.38c-1.45,23.96-1.53,47.95-2.23,71.92c-0.62,21.42-0.85,42.85-0.44,64.28
		c0.03,1.6,0.01,3.2-0.05,4.8c-0.06,1.66-1.31,3.15-2.78,3.42c-0.31,0.06-0.62,0.16-0.94,0.2c-11.24,1.2-21.77,4.86-32.1,9.22
		c-11.5,4.86-22.39,10.9-33.05,17.35c-4.92,2.98-9.81,6-14.74,8.96c-1.86,1.12-3.06,0.56-3.31-1.4
		c-3.66-29.58-4.66-59.29-4.31-89.06c0.09-7.36,0.22-14.71,0.46-22.07c0.46-14.07,1.62-28.09,3.12-42.08
		c0.72-6.67,1.51-13.34,2.29-20.01c2.94-25.1,7.62-49.88,13.55-74.44c6.07-25.18,13.69-49.86,23.28-73.92
		c9.01-22.6,19.67-44.37,32.86-64.86c6.41-9.96,13.45-19.46,21.18-28.44c0.62-0.72,1.32-1.38,1.99-2.07
		c0.86-0.88,2.48-0.8,3.37,0.29c4.03,4.96,8.17,9.85,11.99,14.96c16.35,21.87,29.09,45.8,39.83,70.84
		c12.36,28.84,21.59,58.69,28.77,89.2c3.59,15.24,6.6,30.6,9.09,46.05c1.88,11.67,3.18,23.43,4.54,35.18
		c1.14,9.84,2,19.72,2.94,29.58c0.24,2.55,0.41,5.1,0.5,7.66c0.84,24.93,1.68,49.85,0.54,74.82c-0.6,13.11-1.84,26.16-2.64,39.24
		c-0.2,3.18-0.92,6.32-1.41,9.48c-0.15,0.93-1.32,1.59-2.08,1.16c-2.22-1.27-4.44-2.53-6.62-3.86
		c-10.08-6.19-20.24-12.23-30.84-17.46c-11.19-5.52-22.69-10.27-34.95-12.91c-2.49-0.54-5.01-0.99-7.54-1.3
		c-4.14-0.5-4.62-1.75-4.59-5.72c0.01-1.92,0.03-3.84,0.02-5.76c-0.07-20.15,0.09-40.31-0.26-60.46
		c-0.39-22.07-0.98-44.14-1.99-66.18c-0.79-17.24-1.82-34.49-3.59-51.68c-0.46-4.45-1.24-8.86-1.87-13.3
		C1173.67,1026.43,1175.46,1032.04,1174.07,1032.2z"/>
	<path d="M823.01,1283.67c4.97-0.18,10.51,1.38,16.03,2.99c7.7,2.24,14.98,5.54,21.96,9.41c7.82,4.33,15.52,8.89,23.12,13.59
		c11.14,6.88,22.1,14.06,33.23,20.97c10.31,6.4,20.9,12.32,32.03,17.23c9.07,4,18.35,7.37,28.12,9.3c10.08,1.99,20.14,2.9,30.47,1.9
		c14.18-1.37,27.5-5.48,40.47-11.04c10.29-4.41,20.13-9.71,29.7-15.49c9.57-5.78,18.97-11.83,28.5-17.67
		c9.26-5.67,18.54-11.31,27.9-16.81c6.61-3.89,13.54-7.18,20.71-9.93c5.38-2.06,10.91-3.64,16.65-4.29
		c6.8-0.77,13.35,0.65,19.81,2.6c6.13,1.85,12.05,4.28,17.68,7.29c8.16,4.36,16.27,8.85,24.21,13.61
		c9.59,5.74,18.95,11.87,28.46,17.75c10.87,6.72,21.86,13.22,33.33,18.89c12.07,5.96,24.5,10.95,37.75,13.5
		c9.1,1.75,18.27,2.63,27.64,1.74c14.81-1.42,28.75-5.68,42.33-11.48c11.77-5.02,23.04-11.02,34.02-17.56
		c11.53-6.86,22.96-13.88,34.44-20.82c10.11-6.12,20.26-12.18,30.9-17.33c6.62-3.2,13.4-5.97,20.61-7.61
		c4.13-0.94,8.34-1.26,12.35-0.17c5.68,1.55,7.97,0.64,3.29,7.59c-26.27,39.06-57.96,73.06-95.02,102.06
		c-1.76,1.38-3.51,2.8-5.4,3.97c-15.21,9.41-30.33,18.99-46.4,26.89c-5.72,2.81-11.67,5.16-17.57,7.58
		c-5.35,2.19-11.03,3.23-16.7,4.12c-7.11,1.12-13.97-0.55-20.76-2.49c-8.02-2.29-15.61-5.66-22.89-9.66
		c-7.84-4.3-15.61-8.72-23.26-13.35c-10.38-6.28-20.58-12.88-30.93-19.22c-11.17-6.83-22.51-13.38-34.49-18.74
		c-8.46-3.78-17.11-6.94-26.12-9.24c-17.51-4.47-34.77-3.75-52.01,1.41c-10.75,3.22-20.99,7.63-30.91,12.8
		c-10.48,5.46-20.59,11.59-30.59,17.89c-9.19,5.78-18.36,11.62-27.61,17.3c-8.98,5.51-18.11,10.78-27.74,15.11
		c-6.7,3.01-13.58,5.43-20.76,7.17c-9.05,2.19-17.76,1.22-26.47-1.31c-5.52-1.61-10.83-3.78-16.04-6.22
		c-8.11-3.81-15.9-8.18-23.49-12.91c-13.82-8.63-27.59-17.34-41.33-26.09c-2.42-1.54-4.66-3.38-6.86-5.22
		c-31.79-26.71-59.16-57.38-82.37-91.78c-1.06-1.57-1.87-3.32-2.79-4.99c-0.42-0.76-0.12-1.11,0.65-1.48
		C814.46,1283.67,818.3,1283.72,823.01,1283.67z"/>
	<path d="M821.96,1155c5.97-0.16,11.53,1.28,17.05,2.92c6.45,1.91,12.58,4.62,18.57,7.65c9.13,4.62,17.9,9.88,26.54,15.34
		c10.26,6.49,20.45,13.1,30.76,19.52c11.13,6.92,22.51,13.39,34.5,18.73c9.66,4.3,19.58,7.86,29.99,9.73
		c8.81,1.59,17.7,2.64,26.71,1.59c5.39-0.63,10.83-0.88,16.11-2.29c1.21-0.32,2.71,0.72,2.81,1.91c0.28,3.18,0.58,6.36,0.73,9.55
		c0.57,12.15,1.85,24.22,3.39,36.28c0.81,6.34,1.65,12.67,2.42,19.02c0.36,2.98-0.32,4.4-2.8,5.39c-6.51,2.61-13.05,5.04-19.97,6.55
		c-8.74,1.9-17.14,0.98-25.55-1.41c-6.78-1.93-13.22-4.7-19.52-7.84c-9.17-4.56-17.92-9.83-26.57-15.29
		c-11.08-6.99-22.09-14.1-33.21-21.02c-10.31-6.41-20.89-12.37-32.01-17.3c-8.48-3.75-17.18-6.78-26.21-9.03
		c-17.86-4.46-35.47-3.63-53.02,1.41c-2.75,0.79-5.47,1.72-8.23,2.45c-0.49,0.13-1.35-0.18-1.68-0.58
		c-0.79-0.97-1.49-2.07-2.03-3.21c-7.45-15.92-14.02-32.19-19.57-48.87c-0.3-0.91-0.55-1.85-0.69-2.79c-0.2-1.33,0.14-2.6,1.31-3.36
		c12.6-8.2,25.52-15.85,39.7-21.04C808.12,1156.61,814.93,1154.77,821.96,1155z"/>
	<path d="M1590.4,1184.87c-0.08,0.84-0.03,1.51-0.23,2.1c-5.76,17.27-12.45,34.17-20.5,50.51c-0.14,0.29-0.31,0.56-0.47,0.84
		c-0.61,1.07-2.07,1.71-3.25,1.34c-5.18-1.6-10.31-3.37-15.54-4.79c-8.37-2.28-16.93-3.51-25.61-2.68c-9.56,0.92-18.88,3-27.94,6.32
		c-10.22,3.75-20.04,8.33-29.49,13.69c-9.72,5.51-19.32,11.24-28.92,16.95c-10.98,6.53-21.85,13.25-32.88,19.68
		c-8.27,4.82-16.82,9.16-25.72,12.73c-5.93,2.37-12.01,4.16-18.28,5.53c-7.79,1.7-15.33,0.82-22.74-1.2
		c-5.51-1.5-10.79-3.89-16.13-6c-2.27-0.9-2.96-2.31-2.62-4.49c2.65-16.74,4.64-33.54,5.69-50.46c0.28-4.46,0.79-8.92,1.2-13.37
		c0.3-3.29,1.09-3.93,4.23-3.21c18.9,4.39,37.45,2.61,55.75-3.19c10.98-3.48,21.46-8.19,31.69-13.44
		c11.37-5.84,22.35-12.38,33.27-19c10.65-6.46,21.27-12.96,31.95-19.37c7.12-4.27,14.42-8.23,22-11.64
		c5.24-2.35,10.58-4.44,16.21-5.76c5.41-1.27,10.7-1.29,16.08,0.23c4.01,1.13,7.91,2.46,11.71,4.16c13.76,6.15,26.36,14.31,39,22.41
		C1589.57,1183.22,1589.95,1184.23,1590.4,1184.87z"/>
	<path d="M1284.89,1567.98c0-16.31-0.01-32.63,0.01-48.94c0-1.92,0.04-3.84,0.25-5.74c0.06-0.51,0.71-1.1,1.24-1.38
		c0.53-0.28,1.25-0.28,1.88-0.28c8-0.02,15.99,0.02,23.99-0.05c2.65-0.02,4.96,0.59,7.2,2.1c4.5,3.03,9.17,5.82,13.76,8.72
		c29.44,18.6,58.88,37.2,88.34,55.78c2.42,1.53,4.95,2.89,7.49,4.21c0.28,0.14,1.39-0.5,1.42-0.84c0.19-1.9,0.2-3.83,0.21-5.74
		c0.01-17.91,0-35.83,0.01-53.74c0-2.56,0.04-5.12,0.1-7.67c0.04-1.73,1.16-2.74,3.12-2.74c8.95-0.01,17.91,0,26.86,0.04
		c1.86,0.01,2.78,1.04,2.84,3.02c0.05,1.6,0.06,3.2,0.06,4.8c0,32.31,0.01,64.61-0.01,96.92c0,1.91-0.05,3.83-0.26,5.72
		c-0.06,0.51-0.7,1.08-1.22,1.36c-0.53,0.29-1.24,0.35-1.87,0.35c-8,0.03-15.99,0-23.99,0.07c-3.01,0.03-5.53-1-8.04-2.6
		c-17.79-11.32-35.63-22.55-53.47-33.8c-16.75-10.57-33.51-21.13-50.28-31.67c-1.62-1.02-3.3-1.95-5.02-2.77
		c-0.29-0.14-1.36,0.52-1.4,0.87c-0.2,1.9-0.23,3.82-0.23,5.74c-0.01,18.55,0,37.11-0.01,55.66c0,2.24-0.02,4.48-0.19,6.71
		c-0.04,0.52-0.7,1.04-1.16,1.47c-0.2,0.18-0.61,0.18-0.93,0.18c-9.27,0.04-18.54,0.09-27.81,0.09c-1.8,0-2.77-1.12-2.82-3.05
		c-0.05-1.92-0.05-3.84-0.06-5.76c-0.01-6.4,0-12.8,0-19.19C1284.89,1586.54,1284.89,1577.26,1284.89,1567.98z"/>
	<path d="M682.49,1567.77c0-16.62-0.01-33.24,0.02-49.86c0-1.57,0.13-3.16,0.41-4.71c0.09-0.48,0.79-0.97,1.33-1.22
		c0.55-0.26,1.24-0.33,1.87-0.33c8.95-0.01,17.9-0.02,26.85,0.02c1.75,0.01,3.07,1.27,3.11,2.91c0.08,2.87,0.11,5.75,0.12,8.63
		c0.05,9.59,0.08,19.17,0.13,28.76c0.01,1.24,1.11,2.23,2.46,2.28c1.28,0.04,2.56,0.08,3.83,0.08c22.05,0,44.11,0.04,66.16-0.02
		c6.52-0.02,5.69,0.86,9.83-5.5c5.58-8.56,11.24-17.07,16.87-25.59c1.23-1.86,2.48-3.72,3.71-5.59c4.39-6.7,3.39-5.95,10.57-6
		c7.99-0.06,15.98-0.02,23.97,0c1.27,0,2.54,0.14,3.81,0.23c0.73,0.05,1.5,1.51,1.12,2.15c-0.64,1.09-1.26,2.21-1.97,3.26
		c-10.42,15.32-20.84,30.62-31.27,45.93c-0.9,1.32-1.84,2.61-2.67,3.97c-0.71,1.16-0.76,2.45,0,3.6c1.4,2.13,2.86,4.22,4.35,6.3
		c10.2,14.3,20.41,28.6,30.59,42.91c0.52,0.74,1.26,1.46,0.87,2.54c-0.11,0.29-0.14,0.76-0.34,0.85c-0.58,0.25-1.22,0.49-1.83,0.49
		c-10.23,0.03-20.45,0.02-30.68,0.01c-1.71,0-3.09-0.67-4.09-2.06c-1.49-2.07-2.96-4.16-4.42-6.25c-7.1-10.23-14.21-20.46-21.3-30.7
		c-0.78-1.12-1.77-1.78-3.16-1.78c-0.96,0-1.92-0.06-2.88-0.06c-22.69,0-45.39-0.01-68.08,0.01c-1.27,0-2.55,0.04-3.79,0.27
		c-0.53,0.1-1.24,0.68-1.36,1.17c-0.3,1.22-0.43,2.52-0.43,3.78c-0.03,9.59-0.01,19.18-0.04,28.77c0,1.59,0.04,3.22-0.33,4.74
		c-0.18,0.74-1.24,1.28-1.95,1.86c-0.22,0.18-0.6,0.23-0.9,0.23c-9.26-0.01-18.53-0.02-27.79-0.08c-1.64-0.01-2.64-1.31-2.68-3.26
		c-0.04-2.56-0.05-5.11-0.05-7.67C682.49,1597.81,682.49,1582.79,682.49,1567.77z"/>
	<path d="M1176.01,1486.51c-13.12-0.62-25.59-0.79-37.98-1.88c-23.21-2.06-46.15-6.02-68.78-11.65c-1.85-0.46-3.63-1.18-5.43-1.82
		c-0.13-0.05-0.23-0.45-0.2-0.67c0.04-0.3,0.15-0.65,0.35-0.86c0.44-0.45,0.9-0.93,1.45-1.22c14.63-7.85,28.54-16.88,42.59-25.68
		c7.83-4.91,15.72-9.76,23.7-14.42c7.16-4.18,14.53-7.98,22.29-10.94c17.79-6.79,26.18-6.6,43.57-0.17
		c6.89,2.55,13.48,5.77,19.84,9.42c7.75,4.44,15.43,8.99,23.04,13.66c15.49,9.5,30.67,19.54,46.72,28.11
		c0.85,0.45,1.71,2.1,1.3,2.36c-0.49,0.31-0.97,0.68-1.5,0.87c-0.9,0.33-1.83,0.57-2.76,0.79c-6.82,1.62-13.61,3.36-20.46,4.82
		c-15.92,3.4-32.04,5.77-48.23,7.22C1202.17,1485.64,1188.74,1485.88,1176.01,1486.51z"/>
	<path d="M860.03,1673.05c8.63,0,17.26,0,25.89,0c4.83,0,9.57,0.59,14.15,2.15c5.25,1.79,9.84,4.51,12.94,9.31
		c0.7,1.08,0.59,2.83-0.42,3.36c-5.08,2.66-10.16,5.31-15.29,7.87c-0.42,0.21-1.34,0-1.7-0.35c-3.71-3.61-8.31-4.5-13.23-4.5
		c-15.98,0-31.96,0-47.95-0.01c-2.26,0-4.46,0.24-6.55,1.19c-1.27,0.58-1.99,1.62-2.15,2.92c-0.17,1.34,0.48,2.56,1.58,3.25
		c1.06,0.66,2.3,1.16,3.52,1.4c1.55,0.31,3.17,0.34,4.77,0.4c17.56,0.68,35.13,1.41,52.7,1.97c4.21,0.13,8.26,0.85,12.24,2.03
		c3.4,1.01,6.46,2.76,9,5.28c2.79,2.76,4.65,6.01,5.24,9.98c0.52,3.51,0.65,6.97,0.06,10.49c-0.96,5.68-3.81,10.07-8.61,13.21
		c-4.68,3.07-9.99,4.1-15.42,4.66c-1.9,0.2-3.83,0.11-5.75,0.11c-15.66,0.01-31.33-0.07-46.99,0.04
		c-5.48,0.04-10.85-0.56-16.16-1.77c-6.06-1.38-11.42-4.07-15.32-9.1c-0.77-0.99-1.31-2.17-1.91-3.28c-0.4-0.74-0.05-2.19,0.63-2.53
		c5.41-2.71,10.81-5.43,16.25-8.07c0.45-0.22,1.21,0.12,1.8,0.3c0.28,0.08,0.54,0.37,0.7,0.63c2.43,3.98,6.18,5.26,10.6,5.24
		c2.56-0.01,5.11,0.1,7.67,0.1c13.74,0.01,27.49,0.05,41.23-0.03c3.17-0.02,6.35-0.43,9.51-0.8c1.34-0.16,2.47-2.08,2.46-3.72
		c-0.01-1.67-1.08-3.31-2.55-3.6c-2.81-0.55-5.63-1.12-8.48-1.41c-2.86-0.29-5.75-0.25-8.62-0.38c-15.01-0.66-30.01-1.34-45.02-1.98
		c-3.86-0.16-7.57-0.82-11.25-2.09c-11.42-3.94-15.36-15.06-13.43-24.48c1.64-8,6.39-12.95,13.81-15.76
		c3.95-1.5,8.01-2.09,12.21-2.08C841.49,1673.05,850.76,1673.04,860.03,1673.05C860.03,1673.04,860.03,1673.04,860.03,1673.05z"/>
	<path d="M1491.37,1673.05c8.95,0,17.9,0.02,26.85-0.01c4.84-0.02,9.58,0.68,14.13,2.25c5.24,1.8,9.79,4.65,12.83,9.49
		c0.64,1.02,0.34,2.68-0.79,3.27c-3.95,2.09-8.02,3.98-11.84,6.27c-2.89,1.74-5.19,1.87-7.48-0.84c-0.56-0.67-1.6-1.09-2.5-1.28
		c-2.49-0.54-5.01-1.25-7.52-1.26c-16.62-0.11-33.25-0.09-49.87,0.01c-1.86,0.01-3.72,0.74-5.55,1.24
		c-1.12,0.31-2.03,1.74-2.01,2.97c0.02,1.35,0.57,2.52,1.78,3.15c1.12,0.58,2.32,1.07,3.55,1.35c1.23,0.28,2.54,0.29,3.81,0.34
		c17.57,0.68,35.13,1.4,52.7,1.99c4.19,0.14,8.27,0.6,12.28,1.82c0.61,0.18,1.25,0.3,1.84,0.53c10.72,4.12,15.33,13.62,13.49,24.6
		c-1.53,9.15-7.1,14.74-15.92,17.18c-3.7,1.02-7.45,1.69-11.34,1.67c-17.58-0.06-35.17-0.07-52.75-0.01
		c-4.85,0.02-9.58-0.82-14.21-2c-6.32-1.6-11.83-4.73-15.51-10.45c-1.26-1.96-1.04-3.88,0.82-4.83c4.84-2.45,9.7-4.85,14.57-7.24
		c1.3-0.64,2.19-0.38,3.38,0.85c0.44,0.46,0.79,1,1.2,1.5c1.71,2.08,3.87,3.27,6.59,3.39c1.92,0.09,3.83,0.31,5.74,0.31
		c16.3,0.02,32.61,0.04,48.91-0.03c2.21-0.01,4.45-0.36,6.6-0.88c1.24-0.3,1.98-1.52,2.24-2.85c0.39-1.94-0.8-4.12-2.64-4.45
		c-3.13-0.56-6.28-1.2-9.45-1.38c-6.38-0.37-12.78-0.39-19.17-0.68c-11.81-0.54-23.62-1.17-35.43-1.76
		c-4.55-0.23-8.8-1.53-12.76-3.71c-5.68-3.13-9.23-7.82-9.73-14.44c-0.19-2.53-0.17-5.1,0.05-7.63c0.58-6.56,4.06-11.32,9.68-14.51
		c3.63-2.06,7.55-3.46,11.77-3.74c2.87-0.19,5.75-0.24,8.62-0.25c7.67-0.03,15.35-0.01,23.02-0.01
		C1491.37,1673.02,1491.37,1673.04,1491.37,1673.05z"/>
	<path d="M1374.34,1673.17c15.32,0,30.65-0.01,45.97,0.01c1.91,0,3.82,0.09,5.73,0.18c1.19,0.05,2.37,1.26,2.38,2.5
		c0.05,4.78,0.05,9.57,0.06,14.35c0,0.3-0.03,0.67-0.2,0.9c-0.37,0.5-0.76,1.17-1.27,1.33c-1.2,0.35-2.48,0.59-3.73,0.6
		c-9.26,0.05-18.52,0.02-27.77,0.04c-2.55,0-5.1,0.05-7.66,0.12c-1.68,0.05-2.9,1.31-2.9,3.06c-0.03,11.81-0.02,23.62-0.05,35.44
		c-0.01,4.46-0.1,8.93-0.2,13.39c-0.02,1.17-1.28,2.3-2.51,2.37c-0.95,0.05-1.91,0.13-2.86,0.14c-13.9,0.2-15.29,0.12-15.81-1.28
		c-1.82-4.95-0.71-10.09-0.81-15.14c-0.2-9.89-0.05-19.79-0.06-29.69c0-1.91-0.05-3.83-0.11-5.74c-0.03-0.89-1.64-2.52-2.52-2.55
		c-1.91-0.06-3.83-0.12-5.74-0.12c-9.58-0.01-19.16,0.01-28.73-0.02c-1.59-0.01-3.19-0.11-4.75-0.39c-0.48-0.09-1.19-0.89-1.2-1.38
		c-0.05-5.42-0.05-10.84,0.13-16.25c0.02-0.59,1.22-1.55,1.95-1.64c2.21-0.26,4.46-0.21,6.69-0.21
		C1343.69,1673.16,1359.01,1673.17,1374.34,1673.17z"/>
	<path d="M1174.07,1032.2c-0.6-2.51-0.25-4.78,1.68-6.64c0.21-0.2,0.56-0.41,0.8-0.37c0.21,0.04,0.39,0.41,0.52,0.67
		c0.72,1.42,0.81,2.89,0.33,4.4C1176.28,1030.91,1175.17,1031.55,1174.07,1032.2z"/>
	<path d="M1611.68,1024.91c-0.6-18.91-3.16-37.6-6.64-56.14c-5.5-29.26-13.9-57.71-25.39-85.21
		c-28.41-67.99-71.07-125.42-128.08-172.1c-44.03-36.05-93.22-62.54-147.65-79.26c-18.34-5.63-36.95-10.01-55.87-13.24
		c-13.26-2.27-26.58-4.08-39.95-4.88c-25.23-1.5-50.48-1.49-75.71,1.06c-14.97,1.51-29.83,3.63-44.53,6.68
		c-32.62,6.77-64.2,16.93-94.36,31.16c-92.94,43.85-162.64,111.72-209.02,203.39c-16.07,31.76-27.69,65.18-35.17,100.02
		c-2.42,11.25-4.44,22.55-6.03,33.96c-1.33,9.51-2.45,19.04-3.03,28.6c-0.92,15.01-1.23,30.04-0.66,45.08
		c0.37,9.91,0.77,19.8,1.92,29.67c1.07,9.21,2.07,18.42,3.83,27.52c0.36,1.88,0.6,3.78,1.07,5.63c0.09,0.35,1.19,0.83,1.53,0.67
		c2.87-1.39,5.68-2.89,8.48-4.41c11.24-6.12,22.8-11.48,35.12-15.11c18.17-5.36,36.38-6.23,54.88-1.52
		c9.02,2.3,17.7,5.38,26.16,9.17c11.98,5.36,23.3,11.94,34.42,18.87c10.04,6.25,19.97,12.67,29.95,19.01
		c8.9,5.65,17.95,11.06,27.41,15.75c6.01,2.98,12.16,5.64,18.65,7.45c5.87,1.64,11.82,3.02,17.94,2.56
		c7.03-0.53,13.91-1.95,20.46-4.7c1.61-0.68,2.59-1.64,2.65-3.49c0.23-7.03,0.25-14.09,0.84-21.09c1.02-12.11,1.36-24.26,2.59-36.36
		c1.35-13.36,2.82-26.71,4.76-39.98c2.35-16.11,5.29-32.13,8.69-48.08c6.4-30.03,14.65-59.51,25.37-88.27
		c10.62-28.5,23.56-55.89,39.82-81.66c14.77-23.4,32.06-44.67,53.03-62.81c5.54-4.79,10.68-10.11,16.97-14
		c0.99-0.61,2.74,1.09,17.47,14.51c17.12,15.59,31.95,33.12,44.9,52.28c16.34,24.18,29.58,50.01,40.69,76.95
		c12.08,29.28,21.47,59.44,28.77,90.24c4.05,17.09,7.52,34.31,10.2,51.69c1.46,9.48,2.87,18.95,4.01,28.48
		c1.33,11.11,2.5,22.23,3.45,33.38c1.22,14.36,1.77,28.73,2.03,43.12c0.01,0.64,0.07,1.28,0.13,1.91c0.14,1.41,0.94,2.33,2.23,2.8
		c2.7,0.98,5.36,2.12,8.13,2.84c7.78,2.04,15.56,2.99,23.68,1.34c7.58-1.54,14.76-4.06,21.8-7.09c8.81-3.8,17.28-8.3,25.52-13.18
		c11.82-7,23.54-14.18,35.28-21.3c9.83-5.96,19.72-11.83,29.96-17.08c7.4-3.79,14.94-7.24,22.77-10.04
		c9.67-3.47,19.6-5.87,29.89-6.3c12.32-0.52,24.09,2.25,35.59,6.48c10.83,3.99,20.99,9.34,30.95,15.1c2.77,1.6,5.49,3.27,8.26,4.85
		c1.46,0.83,3.22-0.09,3.53-1.77c2.48-13.2,4.32-26.52,5.46-39.88c1.08-12.74,1.32-25.55,1.92-38.02
		C1612.4,1041.52,1611.94,1033.22,1611.68,1024.91z M1349.58,847.02c-0.79,0.89-2.01,1.42-3.07,2.04c-0.21,0.12-0.87-0.02-0.89-0.13
		c-0.79-3.63-3.81-6.7-2.66-10.82c0.61-2.19-0.65-3.56-2.27-4.79c-3.61-2.72-7.67-4.58-11.88-6.04c-6.97-2.41-14.23-3.46-21.55-4.05
		c-1.91-0.15-3.79-0.07-5.53,1.04c-2.02,1.29-4.26,1.05-6.49,0.61c-0.91-0.18-2.01-1.19-1.89-1.85c0.11-0.59,0.16-1.35,0.55-1.71
		c8.18-7.81,17.77-12.23,29.25-12.06c1.59,0.02,3.2-0.01,4.78,0.1c7.75,0.56,15.09,2.3,21.35,7.32c1.72,1.38,3.69,2.43,5.5,3.6
		c2.12-1.27,4.02-2.42,5.92-3.55c12.81-7.61,26.3-9.01,40.48-4.48c7.04,2.25,13.55,5.54,19.61,9.74c3.56,2.47,4.67,3.7,4.13,4.62
		c-1.28,2.19-3.68,2.5-5.71,3.13c-5.31,1.64-10.71,1.04-16.09,0.04c-3.75-0.7-7.54-1.24-11.33-1.73c-1.57-0.21-3.19-0.23-4.77-0.13
		c-3.32,0.22-6.22,1.33-8.05,4.36c-0.16,0.27-0.4,0.5-0.55,0.78c-2.7,4.92-6.77,7.47-12.47,7.29c-0.95-0.03-1.91,0.14-2.86,0.28
		C1357.96,841.38,1353.2,842.93,1349.58,847.02z M1537.9,942.08c-3.61,1.57-7.41,1.86-11.91,1.81c-4.28,0.4-8.82-1.23-13.34-2.81
		c-3.31-1.15-6.55-2.52-9.77-3.91c-4.72-2.03-9.67-3.27-14.65-4.39c-3.65-0.81-7.01,0.13-9.91,2.4c-1.76,1.37-3.39,2.92-4.94,4.53
		c-3.33,3.46-7.25,4.92-12.08,4.41c-3.49-0.37-7.03-0.17-10.53-0.48c-6.01-0.52-11.35,1.11-16.25,4.5c-1.31,0.91-2.66,1.74-4,2.6
		c-0.65,0.41-2.3-0.12-2.38-0.8c-0.48-4.1-0.99-8.21-1.31-12.32c-0.07-0.85,0.52-1.85,1.04-2.62c1.26-1.88,1.04-3.49-0.42-5.16
		c-3.82-4.36-8.19-8.04-13.09-11.13c-8.17-5.15-17-8.76-26.27-11.31c-7.08-1.95-14.3-3.27-21.62-4.03
		c-0.31-0.03-0.87-0.27-0.86-0.32c0.11-0.56,0.14-1.36,0.52-1.63c11.68-8.21,24.5-12.04,38.84-10.14c4.12,0.55,8.17,1.31,12.17,2.49
		c10.33,3.07,19.43,8.02,26.3,16.57c1,1.24,2.01,2.52,3.25,3.5c0.62,0.49,1.92,0.7,2.64,0.39c5.57-2.44,11.29-4.25,17.25-5.56
		c10.3-2.26,20.31-1.33,30.26,1.57c10.27,2.99,19.36,8.22,27.63,14.91c5.22,4.22,10.1,8.83,14.31,14.1
		C1539.76,940.49,1539.38,941.43,1537.9,942.08z"/>
	<path d="M1057.34,1585.23c-1.88-7.37-6.25-12.44-13.04-15.52c-2.31-1.05-4.77-1.78-7.3-2.71c1.64-2.17,4.2-2.6,6.18-3.94
		c4.13-2.78,7-6.36,8.33-11.27c1.81-6.68,1.6-13.22-0.41-19.81c-1.56-5.09-4.45-9.21-8.77-12.19c-2.34-1.62-4.92-2.96-7.55-4.06
		c-5.03-2.1-10.32-3.4-15.77-3.72c-4.78-0.28-9.58-0.39-14.37-0.4c-38.68-0.03-77.35-0.02-116.03-0.01c-2.55,0-5.11,0.04-7.66,0.11
		c-1.77,0.05-2.69,1.12-2.74,3.13c-0.05,1.92-0.05,3.83-0.05,5.75c0,8.31,0,16.62,0,24.93c0,23.65-0.01,47.31,0.01,70.96
		c0,1.9,0.09,3.81,0.32,5.69c0.06,0.49,0.74,1.2,1.23,1.29c1.56,0.28,3.16,0.42,4.75,0.42c43.15,0.02,86.3,0.03,129.46-0.02
		c4.15,0,8.31-0.32,12.44-0.7c6.44-0.6,12.46-2.63,18.11-5.75c5.21-2.88,9.21-6.98,11.41-12.5
		C1058.4,1598.58,1059.07,1592.04,1057.34,1585.23z M910.88,1538.92c0.02-0.59,1.18-1.37,1.96-1.64c0.86-0.31,1.89-0.17,2.84-0.17
		c29.96-0.01,59.93,0,89.89-0.01c3.2,0,6.33,0.12,9.4,1.32c3.8,1.5,5.43,3.69,5.46,7.99c0.04,4.9-1.74,7.3-6.4,7.91
		c-3.78,0.5-7.61,0.76-11.42,0.78c-14.03,0.09-28.05,0.04-42.08,0.04c-13.71,0-27.41,0.01-41.12-0.01c-2.23,0-4.46-0.08-6.69-0.14
		c-0.71-0.02-1.95-1.14-1.95-1.81C910.78,1548.43,910.71,1543.67,910.88,1538.92z M1026.02,1589.8c-0.02,0.63-0.09,1.27-0.21,1.9
		c-0.38,1.99-1.47,3.57-3.2,4.53c-1.95,1.08-4.03,1.94-6.33,1.97c-2.55,0.03-5.11,0.12-7.66,0.12c-14.68,0.01-29.37,0.01-44.05,0.01
		c-15.96,0-31.92,0.01-47.88-0.01c-1.57,0-3.16-0.1-4.71-0.36c-0.47-0.08-1.16-0.82-1.2-1.29c-0.36-5.08-0.66-10.18,0.19-15.24
		c0.08-0.48,0.78-1.13,1.27-1.21c1.55-0.26,3.14-0.39,4.71-0.39c13.41-0.03,26.81-0.02,40.22-0.02c17.24,0,34.47,0.01,51.71-0.01
		c3.52,0,7.01,0.09,10.46,0.94C1023.82,1581.83,1026.18,1584.94,1026.02,1589.8z"/>
	<path d="M1678.33,1621.72c-0.75-1.4-1.67-2.71-2.62-3.99c-8.79-11.76-17.59-23.51-26.4-35.26c-16.85-22.47-33.74-44.92-50.52-67.45
		c-1.68-2.25-3.39-3.51-6.3-3.46c-8.3,0.13-16.61,0.1-24.91,0.01c-2.5-0.03-4.22,1.05-5.62,2.93c-7.25,9.72-14.48,19.46-21.75,29.17
		c-17.8,23.76-35.61,47.51-53.41,71.27c-1.53,2.04-3.04,4.1-4.47,6.22c-0.29,0.42-0.37,1.24-0.15,1.68
		c0.22,0.45,0.93,0.93,1.43,0.94c9.9,0.08,19.8,0.1,29.7,0.13c2.05,0.01,3.67-0.77,4.89-2.47c1.86-2.59,3.76-5.15,5.67-7.71
		c1.9-2.56,3.77-5.14,5.76-7.64c0.79-0.99,1.85-1.74,3.25-1.74c1.6,0,3.19-0.05,4.79-0.05c28.11,0,56.22,0,84.32,0
		c1.92,0,3.83,0.05,5.75,0.07c1.39,0.01,2.39,0.69,3.19,1.77c3.61,4.87,7.35,9.65,10.8,14.63c1.67,2.41,3.76,3.2,6.49,3.17
		c4.47-0.06,8.94-0.02,13.41-0.02c0,0,0-0.01,0-0.01c4.47,0,8.94,0.03,13.41-0.02c0.94-0.01,1.94-0.15,2.78-0.53
		C1678.16,1623.18,1678.53,1622.09,1678.33,1621.72z M1607.65,1577.87c-1.23,0.25-2.52,0.28-3.79,0.29
		c-7.96,0.02-15.92,0.01-23.88,0.01c0-0.05,0-0.1,0-0.14c-8.91,0-17.83,0-26.74-0.01c-0.72,0-1.53-1.61-1.13-2.2
		c1.07-1.56,2.08-3.18,3.21-4.7c5.52-7.4,11.05-14.78,16.63-22.14c2.49-3.29,5.09-6.5,7.65-9.75c3.61,1.18,4.72,4.79,7.01,7.26
		c0.64,0.7,1.15,1.52,1.72,2.29c6.12,8.14,12.25,16.28,18.34,24.44c0.75,1,1.38,2.12,1.85,3.28
		C1608.63,1576.81,1608.03,1577.79,1607.65,1577.87z"/>
	<path d="M1266.5,1621.82c-0.98-1.64-2.11-3.19-3.25-4.73c-21.04-28.11-42.08-56.21-63.12-84.32c-3.64-4.85-7.27-9.71-10.93-14.54
		c-5.87-7.77-3.32-6.5-14.23-6.62c-6.07-0.07-12.13-0.02-18.2,0c-0.96,0-1.94-0.05-2.86,0.17c-0.89,0.21-1.85,0.56-2.5,1.15
		c-0.93,0.85-1.61,1.97-2.38,2.99c-25.82,34.49-51.64,68.98-77.46,103.47c-0.38,0.51-0.7,1.07-1.11,1.55
		c-0.49,0.59-0.6,1.19-0.08,1.75c0.38,0.41,0.91,0.99,1.37,0.99c9.89,0.11,19.78,0.14,29.68,0.19c2.05,0.01,3.64-0.82,4.87-2.5
		c3.76-5.15,7.58-10.26,11.38-15.38c0.81-1.09,1.87-1.66,3.25-1.65c1.6,0.01,3.19-0.05,4.79-0.05c28.42,0,56.84-0.03,85.26,0.02
		c6.67,0.01,6.03-1.12,10.89,5.65c2.79,3.89,5.69,7.69,8.51,11.56c1.24,1.7,2.9,2.38,4.93,2.38c4.79-0.01,9.58,0,14.37,0
		c0,0,0,0.01,0,0.01c4.47,0,8.94,0.03,13.41-0.02c0.93-0.01,1.92-0.16,2.76-0.54C1266.24,1623.19,1266.68,1622.12,1266.5,1621.82z
		 M1195.71,1577.74c-1.2,0.3-2.47,0.41-3.71,0.41c-8.28,0.03-16.56,0.02-24.84,0.02c-6.69,0-13.38,0.12-20.06-0.06
		c-2.4-0.07-5.08,1.04-7.2-1.08c0.03-2.47,2-3.85,3.27-5.57c7.4-9.97,14.9-19.87,22.38-29.78c0.57-0.75,1.18-1.53,1.93-2.07
		c0.39-0.28,1.22-0.25,1.69-0.03c0.53,0.26,0.92,0.86,1.3,1.36c8.22,10.94,16.44,21.89,24.64,32.86c0.56,0.74,1.07,1.58,1.32,2.46
		C1196.53,1576.68,1196.07,1577.65,1195.71,1577.74z"/>
	<path d="M1182.88,1703.06c-1.99-12.56-8.68-21.73-20.83-26.46c-4.78-1.86-9.68-3.24-14.83-3.41c-4.47-0.15-8.94-0.17-13.41-0.18
		c-14.05-0.02-28.11,0.04-42.16-0.02c-5.79-0.02-11.49,0.59-16.99,2.39c-11.74,3.86-19.75,11.48-23.01,23.57
		c-1.43,5.29-1.37,10.76-0.94,16.19c1.13,14.08,8.28,23.84,21.42,29.01c6.28,2.47,12.88,3.62,19.65,3.61c8.3-0.01,16.61,0,24.91,0
		c0,0,0,0,0-0.01c8.62,0,17.25,0.03,25.87-0.01c7.1-0.03,14.02-1.37,20.5-4.17c9.6-4.15,15.95-11.26,18.81-21.54
		C1183.64,1715.72,1183.88,1709.35,1182.88,1703.06z M1160.49,1718.39c-1.67,4.14-4.64,6.91-8.76,8.28
		c-3.32,1.1-6.76,1.85-10.34,1.84c-16.31-0.05-32.62-0.06-48.93,0.01c-3.58,0.01-7.03-0.67-10.35-1.78
		c-5.64-1.88-8.96-6.07-9.94-11.85c-0.47-2.8-0.45-5.78-0.07-8.59c0.78-5.79,3.88-9.95,9.43-12.27c3.35-1.4,6.79-1.74,10.32-1.75
		c8.32-0.02,16.63-0.01,24.95-0.01c0,0,0,0,0,0c8.32,0,16.63-0.01,24.95,0.01c3.53,0.01,6.98,0.37,10.32,1.75
		c4.06,1.68,6.92,4.4,8.54,8.51C1162.68,1707.84,1162.62,1713.09,1160.49,1718.39z"/>
	<path d="M1310.78,1745.74c-0.41-1.19-1-2.34-1.7-3.39c-3.88-5.86-7.81-11.69-11.71-17.54c-0.49-0.74-0.26-1.88,0.51-2.43
		c1.3-0.92,2.64-1.78,3.93-2.71c4.99-3.62,7.33-8.79,8.08-14.67c0.4-3.14,0.38-6.41,0.04-9.57c-0.79-7.42-4.23-13.36-10.87-17.06
		c-2.48-1.38-5.2-2.4-7.9-3.32c-4.59-1.57-9.37-1.89-14.19-1.88c-11.83,0.02-23.67,0.01-35.5,0.01c0,0,0-0.01,0-0.01
		c-12.79,0-25.59-0.01-38.38,0.01c-1.59,0-3.2,0.05-4.78,0.28c-0.5,0.08-1.21,0.78-1.29,1.29c-0.25,1.57-0.32,3.18-0.32,4.77
		c-0.02,20.47-0.01,40.94-0.01,61.4c0,1.28,0.05,2.55,0.12,3.83c0.07,1.37,1.1,2.64,2.26,2.65c5.43,0.04,10.86,0.05,16.29,0.03
		c1.21,0,2.38-1.23,2.42-2.48c0.08-2.87,0.11-5.75,0.17-8.62c0.05-2.56,0.08-5.11,0.14-7.67c0.02-0.67,1.2-1.78,1.93-1.79
		c5.43-0.08,10.87-0.18,16.3-0.18c12.15-0.01,24.31,0.03,36.46,0.03c1.37,0,2.48,0.5,3.24,1.65c1.92,2.94,3.77,5.92,5.73,8.83
		c8.41,12.51,4.01,10.13,18.77,10.36c3.19,0.05,6.38-0.13,9.56-0.33C1310.35,1747.22,1310.92,1746.13,1310.78,1745.74z
		 M1282.96,1707.46c-2.83,0.39-5.71,0.5-8.56,0.53c-7.96,0.07-15.92,0.02-23.88,0.02c-9.23,0-18.47,0.01-27.7-0.01
		c-0.95,0-1.99,0.09-2.83-0.25c-0.76-0.3-1.83-1.12-1.85-1.75c-0.18-3.81-0.11-7.63-0.09-11.45c0.01-1.18,1.17-2.15,2.54-2.21
		c0.95-0.04,1.91-0.1,2.86-0.1c16.87-0.01,33.75-0.01,50.62,0.01c2.23,0,4.46,0.05,6.68,0.26c1.24,0.12,2.48,0.52,3.67,0.95
		c3.02,1.1,4.49,3.29,4.54,6.57C1289.02,1703.91,1286.71,1706.94,1282.96,1707.46z"/>
	<path d="M1041.4,1694.5c-1.03-6.68-4.31-11.91-10.01-15.56c-2.7-1.73-5.58-3.01-8.69-3.88c-4.96-1.39-10-1.92-15.13-1.9
		c-11.81,0.04-23.61,0.01-35.42,0.01c0,0,0,0,0,0c-12.45,0-24.89-0.01-37.34,0.01c-1.59,0-3.19,0.1-4.75,0.34
		c-0.52,0.08-1.17,0.68-1.35,1.2c-0.32,0.87-0.42,1.85-0.42,2.79c-0.02,21.7-0.03,43.4-0.01,65.1c0,0.95-0.04,1.99,0.33,2.82
		c0.34,0.76,1.21,1.8,1.86,1.82c5.72,0.16,11.45,0.14,17.18,0.07c0.47-0.01,1.15-0.68,1.36-1.2c0.35-0.86,0.52-1.84,0.54-2.78
		c0.07-3.51,0.03-7.02,0.08-10.53c0.04-2.4,1.18-3.65,3.34-3.7c2.23-0.05,4.47-0.04,6.7-0.04c14.36,0,28.72,0.02,43.08-0.02
		c4.15-0.01,8.3-0.07,12.44-0.36c5.81-0.41,11.25-2.17,16.19-5.29c5.73-3.62,9-8.87,10.03-15.55
		C1042.08,1703.4,1042.09,1698.95,1041.4,1694.5z M1016.2,1708.12c-1.48,0.55-3.02,1.09-4.57,1.25c-2.53,0.26-5.09,0.26-7.63,0.27
		c-7.64,0.03-15.29,0.01-22.93,0.01c-8.28,0-16.56,0.02-24.84-0.01c-1.58-0.01-3.22,0.02-4.73-0.36c-0.7-0.17-1.64-1.24-1.67-1.94
		c-0.16-4.13-0.1-8.27-0.08-12.4c0.01-1.19,1.22-2.3,2.46-2.39c0.63-0.04,1.27-0.13,1.9-0.13c17.52-0.01,35.04-0.01,52.55,0
		c3.19,0,6.34,0.15,9.36,1.46c3.18,1.38,4.64,3.61,4.58,7.56C1020.55,1704.61,1019.25,1706.98,1016.2,1708.12z"/>
</g>
</svg>
