<?xml version="1.0" encoding="utf-8"?>
<!-- Generator: Adobe Illustrator 25.2.1, SVG Export Plug-In . SVG Version: 6.00 Build 0)  -->
<svg version="1.1" id="Camada_1" xmlns="http://www.w3.org/2000/svg" xmlns:xlink="http://www.w3.org/1999/xlink" x="0px" y="0px"
	 viewBox="0 0 2072.1 2360.9" style="enable-background:new 0 0 2072.1 2360.9;" xml:space="preserve">
<g>
	<path d="M1022.8,872c-5,38.9-7.3,78.1-9.7,117.3c-3,49.8-3.2,99.8-4.6,149.6c-1.3,44.6-1.8,89.2-0.9,133.7c0.1,3.3,0,6.7-0.1,10
		c-0.1,3.5-2.7,6.6-5.8,7.1c-0.6,0.1-1.3,0.3-2,0.4c-23.4,2.5-45.3,10.1-66.8,19.2c-23.9,10.1-46.6,22.7-68.8,36.1
		c-10.2,6.2-20.4,12.5-30.7,18.6c-3.9,2.3-6.4,1.2-6.9-2.9c-7.6-61.5-9.7-123.4-9-185.3c0.2-15.3,0.5-30.6,1-45.9
		c1-29.3,3.4-58.4,6.5-87.5c1.5-13.9,3.1-27.8,4.8-41.6c6.1-52.2,15.9-103.8,28.2-154.9c12.6-52.4,28.5-103.7,48.4-153.8
		c18.7-47,40.9-92.3,68.4-134.9c13.3-20.7,28-40.5,44.1-59.2c1.3-1.5,2.7-2.9,4.1-4.3c1.8-1.8,5.2-1.7,7,0.6
		c8.4,10.3,17,20.5,24.9,31.1c34,45.5,60.5,95.3,82.9,147.4c25.7,60,44.9,122.1,59.9,185.6c7.5,31.7,13.7,63.7,18.9,95.8
		c3.9,24.3,6.6,48.7,9.4,73.2c2.4,20.5,4.2,41,6.1,61.5c0.5,5.3,0.9,10.6,1,15.9c1.7,51.9,3.5,103.7,1.1,155.7
		c-1.2,27.3-3.8,54.4-5.5,81.6c-0.4,6.6-1.9,13.1-2.9,19.7c-0.3,1.9-2.7,3.3-4.3,2.4c-4.6-2.6-9.2-5.3-13.8-8
		c-21-12.9-42.1-25.4-64.2-36.3c-23.3-11.5-47.2-21.4-72.7-26.9c-5.2-1.1-10.4-2.1-15.7-2.7c-8.6-1-9.6-3.6-9.5-11.9c0-4,0.1-8,0-12
		c-0.1-41.9,0.2-83.9-0.5-125.8c-0.8-45.9-2-91.8-4.1-137.7c-1.6-35.9-3.8-71.8-7.5-107.5c-1-9.3-2.6-18.4-3.9-27.7
		C1022,860,1025.7,871.7,1022.8,872z"/>
	<path d="M292.4,1395.2c10.3-0.4,21.9,2.9,33.4,6.2c16,4.7,31.2,11.5,45.7,19.6c16.3,9,32.3,18.5,48.1,28.3
		c23.2,14.3,46,29.3,69.1,43.6c21.5,13.3,43.5,25.6,66.6,35.8c18.9,8.3,38.2,15.3,58.5,19.3c21,4.1,41.9,6,63.4,4
		c29.5-2.9,57.2-11.4,84.2-23c21.4-9.2,41.9-20.2,61.8-32.2c19.9-12,39.5-24.6,59.3-36.8c19.3-11.8,38.6-23.5,58-35
		c13.8-8.1,28.2-14.9,43.1-20.7c11.2-4.3,22.7-7.6,34.6-8.9c14.1-1.6,27.8,1.4,41.2,5.4c12.8,3.8,25.1,8.9,36.8,15.2
		c17,9.1,33.9,18.4,50.4,28.3c20,11.9,39.4,24.7,59.2,36.9c22.6,14,45.5,27.5,69.3,39.3c25.1,12.4,51,22.8,78.5,28.1
		c18.9,3.6,38,5.5,57.5,3.6c30.8-3,59.8-11.8,88.1-23.9c24.5-10.4,47.9-22.9,70.8-36.5c24-14.3,47.8-28.9,71.7-43.3
		c21-12.7,42.2-25.3,64.3-36.1c13.8-6.7,27.9-12.4,42.9-15.8c8.6-2,17.4-2.6,25.7-0.4c11.8,3.2,16.6,1.3,6.8,15.8
		c-54.7,81.3-120.6,152-197.7,212.3c-3.7,2.9-7.3,5.8-11.2,8.3c-31.6,19.6-63.1,39.5-96.5,55.9c-11.9,5.8-24.3,10.7-36.6,15.8
		c-11.1,4.6-22.9,6.7-34.7,8.6c-14.8,2.3-29.1-1.1-43.2-5.2c-16.7-4.8-32.5-11.8-47.6-20.1c-16.3-8.9-32.5-18.1-48.4-27.8
		c-21.6-13.1-42.8-26.8-64.4-40c-23.2-14.2-46.8-27.8-71.8-39c-17.6-7.9-35.6-14.4-54.3-19.2c-36.4-9.3-72.3-7.8-108.2,2.9
		c-22.4,6.7-43.7,15.9-64.3,26.6c-21.8,11.4-42.8,24.1-63.6,37.2c-19.1,12-38.2,24.2-57.4,36c-18.7,11.5-37.7,22.4-57.7,31.4
		c-13.9,6.3-28.3,11.3-43.2,14.9c-18.8,4.6-37,2.5-55.1-2.7c-11.5-3.3-22.5-7.9-33.4-12.9c-16.9-7.9-33.1-17-48.9-26.9
		c-28.8-18-57.4-36.1-86-54.3c-5-3.2-9.7-7-14.3-10.9c-66.1-55.6-123.1-119.4-171.4-191c-2.2-3.3-3.9-6.9-5.8-10.4
		c-0.9-1.6-0.2-2.3,1.4-3.1C274.6,1395.2,282.6,1395.3,292.4,1395.2z"/>
	<path d="M290.2,1127.5c12.4-0.3,24,2.7,35.5,6.1c13.4,4,26.2,9.6,38.6,15.9c19,9.6,37.2,20.6,55.2,31.9
		c21.3,13.5,42.5,27.3,64,40.6c23.2,14.4,46.8,27.9,71.8,39c20.1,8.9,40.7,16.4,62.4,20.2c18.3,3.3,36.8,5.5,55.6,3.3
		c11.2-1.3,22.5-1.8,33.5-4.8c2.5-0.7,5.6,1.5,5.8,4c0.6,6.6,1.2,13.2,1.5,19.9c1.2,25.3,3.8,50.4,7.1,75.5
		c1.7,13.2,3.4,26.4,5,39.6c0.7,6.2-0.7,9.2-5.8,11.2c-13.5,5.4-27.2,10.5-41.5,13.6c-18.2,4-35.7,2-53.2-2.9
		c-14.1-4-27.5-9.8-40.6-16.3c-19.1-9.5-37.3-20.5-55.3-31.8c-23.1-14.5-46-29.3-69.1-43.7c-21.5-13.3-43.5-25.7-66.6-36
		c-17.6-7.8-35.7-14.1-54.5-18.8c-37.2-9.3-73.8-7.6-110.3,2.9c-5.7,1.6-11.4,3.6-17.1,5.1c-1,0.3-2.8-0.4-3.5-1.2
		c-1.6-2-3.1-4.3-4.2-6.7c-15.5-33.1-29.2-67-40.7-101.7c-0.6-1.9-1.1-3.8-1.4-5.8c-0.4-2.8,0.3-5.4,2.7-7
		c26.2-17.1,53.1-33,82.6-43.8C261.4,1130.9,275.6,1127,290.2,1127.5z"/>
	<path d="M1889,1189.7c-0.2,1.7-0.1,3.1-0.5,4.4c-12,35.9-25.9,71.1-42.7,105.1c-0.3,0.6-0.6,1.2-1,1.7c-1.3,2.2-4.3,3.6-6.8,2.8
		c-10.8-3.3-21.5-7-32.3-10c-17.4-4.7-35.2-7.3-53.3-5.6c-19.9,1.9-39.3,6.2-58.1,13.1c-21.3,7.8-41.7,17.3-61.4,28.5
		c-20.2,11.5-40.2,23.4-60.2,35.3c-22.8,13.6-45.5,27.6-68.4,40.9c-17.2,10-35,19.1-53.5,26.5c-12.3,4.9-25,8.7-38,11.5
		c-16.2,3.5-31.9,1.7-47.3-2.5c-11.5-3.1-22.4-8.1-33.6-12.5c-4.7-1.9-6.2-4.8-5.5-9.3c5.5-34.8,9.7-69.8,11.8-105
		c0.6-9.3,1.6-18.6,2.5-27.8c0.6-6.8,2.3-8.2,8.8-6.7c39.3,9.1,77.9,5.4,116-6.6c22.8-7.2,44.6-17,65.9-28
		c23.7-12.2,46.5-25.8,69.2-39.5c22.2-13.4,44.3-27,66.5-40.3c14.8-8.9,30-17.1,45.8-24.2c10.9-4.9,22-9.2,33.7-12
		c11.3-2.6,22.3-2.7,33.5,0.5c8.3,2.4,16.5,5.1,24.4,8.7c28.6,12.8,54.8,29.8,81.1,46.6C1887.3,1186.2,1888.1,1188.3,1889,1189.7z"
		/>
	<path d="M1253.4,1986.7c0-33.9,0-67.9,0-101.8c0-4,0.1-8,0.5-11.9c0.1-1.1,1.5-2.3,2.6-2.9c1.1-0.6,2.6-0.6,3.9-0.6
		c16.6,0,33.3,0,49.9-0.1c5.5,0,10.3,1.2,15,4.4c9.4,6.3,19.1,12.1,28.6,18.1c61.3,38.7,122.5,77.4,183.8,116.1
		c5,3.2,10.3,6,15.6,8.8c0.6,0.3,2.9-1,3-1.7c0.4-4,0.4-8,0.4-11.9c0-37.3,0-74.5,0-111.8c0-5.3,0.1-10.7,0.2-16
		c0.1-3.6,2.4-5.7,6.5-5.7c18.6,0,37.3,0,55.9,0.1c3.9,0,5.8,2.2,5.9,6.3c0.1,3.3,0.1,6.7,0.1,10c0,67.2,0,134.4,0,201.6
		c0,4-0.1,8-0.5,11.9c-0.1,1.1-1.5,2.2-2.5,2.8c-1.1,0.6-2.6,0.7-3.9,0.7c-16.6,0.1-33.3,0-49.9,0.1c-6.3,0.1-11.5-2.1-16.7-5.4
		c-37-23.6-74.1-46.9-111.2-70.3c-34.8-22-69.7-44-104.6-65.9c-3.4-2.1-6.9-4.1-10.4-5.8c-0.6-0.3-2.8,1.1-2.9,1.8
		c-0.4,4-0.5,7.9-0.5,11.9c0,38.6,0,77.2,0,115.8c0,4.7,0,9.3-0.4,14c-0.1,1.1-1.5,2.2-2.4,3.1c-0.4,0.4-1.3,0.4-1.9,0.4
		c-19.3,0.1-38.6,0.2-57.9,0.2c-3.7,0-5.8-2.3-5.9-6.3c-0.1-4-0.1-8-0.1-12c0-13.3,0-26.6,0-39.9
		C1253.4,2025.3,1253.4,2006,1253.4,1986.7z"/>
	<path d="M0.1,1986.3c0-34.6,0-69.2,0-103.7c0-3.3,0.3-6.6,0.9-9.8c0.2-1,1.6-2,2.8-2.5c1.1-0.5,2.6-0.7,3.9-0.7
		c18.6,0,37.2,0,55.9,0c3.6,0,6.4,2.6,6.5,6.1c0.2,6,0.2,12,0.2,18c0.1,20,0.2,39.9,0.3,59.8c0,2.6,2.3,4.6,5.1,4.7
		c2.7,0.1,5.3,0.2,8,0.2c45.9,0,91.8,0.1,137.6,0c13.6,0,11.8,1.8,20.5-11.4c11.6-17.8,23.4-35.5,35.1-53.2
		c2.6-3.9,5.2-7.7,7.7-11.6c9.1-13.9,7.1-12.4,22-12.5c16.6-0.1,33.2,0,49.9,0c2.6,0,5.3,0.3,7.9,0.5c1.5,0.1,3.1,3.1,2.3,4.5
		c-1.3,2.3-2.6,4.6-4.1,6.8c-21.7,31.9-43.4,63.7-65.1,95.6c-1.9,2.7-3.8,5.4-5.6,8.3c-1.5,2.4-1.6,5.1,0,7.5
		c2.9,4.4,6,8.8,9.1,13.1c21.2,29.8,42.5,59.5,63.6,89.3c1.1,1.5,2.6,3,1.8,5.3c-0.2,0.6-0.3,1.6-0.7,1.8c-1.2,0.5-2.5,1-3.8,1
		c-21.3,0.1-42.5,0-63.8,0c-3.6,0-6.4-1.4-8.5-4.3c-3.1-4.3-6.2-8.7-9.2-13c-14.8-21.3-29.6-42.6-44.3-63.9
		c-1.6-2.3-3.7-3.7-6.6-3.7c-2,0-4-0.1-6-0.1c-47.2,0-94.4,0-141.6,0c-2.6,0-5.3,0.1-7.9,0.6c-1.1,0.2-2.6,1.4-2.8,2.4
		c-0.6,2.5-0.9,5.2-0.9,7.9c-0.1,20,0,39.9-0.1,59.9c0,3.3,0.1,6.7-0.7,9.9c-0.4,1.5-2.6,2.7-4.1,3.9c-0.5,0.4-1.2,0.5-1.9,0.5
		c-19.3,0-38.6,0-57.8-0.2c-3.4,0-5.5-2.7-5.6-6.8c-0.1-5.3-0.1-10.6-0.1-16C0.1,2048.8,0.1,2017.5,0.1,1986.3z"/>
	<path d="M1026.8,1817.2c-27.3-1.3-53.2-1.6-79-3.9c-48.3-4.3-96-12.5-143.1-24.2c-3.8-1-7.6-2.5-11.3-3.8c-0.3-0.1-0.5-0.9-0.4-1.4
		c0.1-0.6,0.3-1.4,0.7-1.8c0.9-0.9,1.9-1.9,3-2.5c30.4-16.3,59.4-35.1,88.6-53.4c16.3-10.2,32.7-20.3,49.3-30
		c14.9-8.7,30.2-16.6,46.4-22.8c37-14.1,54.5-13.7,90.6-0.4c14.3,5.3,28,12,41.3,19.6c16.1,9.2,32.1,18.7,47.9,28.4
		c32.2,19.8,63.8,40.7,97.2,58.5c1.8,0.9,3.6,4.4,2.7,4.9c-1,0.6-2,1.4-3.1,1.8c-1.9,0.7-3.8,1.2-5.7,1.6c-14.2,3.4-28.3,7-42.6,10
		c-33.1,7.1-66.7,12-100.3,15C1081.3,1815.4,1053.3,1815.9,1026.8,1817.2z"/>
	<path d="M369.4,2205.3c18,0,35.9,0,53.9,0c10,0,19.9,1.2,29.4,4.5c10.9,3.7,20.5,9.4,26.9,19.4c1.5,2.2,1.2,5.9-0.9,7
		c-10.6,5.5-21.1,11-31.8,16.4c-0.9,0.4-2.8,0-3.5-0.7c-7.7-7.5-17.3-9.4-27.5-9.4c-33.2,0-66.5,0-99.8,0c-4.7,0-9.3,0.5-13.6,2.5
		c-2.6,1.2-4.1,3.4-4.5,6.1c-0.4,2.8,1,5.3,3.3,6.8c2.2,1.4,4.8,2.4,7.3,2.9c3.2,0.6,6.6,0.7,9.9,0.8c36.5,1.4,73.1,2.9,109.6,4.1
		c8.8,0.3,17.2,1.8,25.5,4.2c7.1,2.1,13.4,5.7,18.7,11c5.8,5.7,9.7,12.5,10.9,20.8c1.1,7.3,1.4,14.5,0.1,21.8
		c-2,11.8-7.9,21-17.9,27.5c-9.7,6.4-20.8,8.5-32.1,9.7c-4,0.4-8,0.2-12,0.2c-32.6,0-65.2-0.1-97.8,0.1c-11.4,0.1-22.6-1.2-33.6-3.7
		c-12.6-2.9-23.8-8.5-31.9-18.9c-1.6-2.1-2.7-4.5-4-6.8c-0.8-1.5-0.1-4.6,1.3-5.3c11.3-5.6,22.5-11.3,33.8-16.8
		c0.9-0.5,2.5,0.2,3.7,0.6c0.6,0.2,1.1,0.8,1.5,1.3c5.1,8.3,12.9,10.9,22.1,10.9c5.3,0,10.6,0.2,16,0.2c28.6,0,57.2,0.1,85.8-0.1
		c6.6,0,13.2-0.9,19.8-1.7c2.8-0.3,5.1-4.3,5.1-7.7c0-3.5-2.2-6.9-5.3-7.5c-5.8-1.1-11.7-2.3-17.6-2.9c-6-0.6-12-0.5-17.9-0.8
		c-31.2-1.4-62.4-2.8-93.7-4.1c-8-0.3-15.7-1.7-23.4-4.3c-23.8-8.2-32-31.3-27.9-50.9c3.4-16.6,13.3-26.9,28.7-32.8
		c8.2-3.1,16.7-4.3,25.4-4.3C330.9,2205.3,350.2,2205.3,369.4,2205.3C369.4,2205.3,369.4,2205.3,369.4,2205.3z"/>
	<path d="M1683,2205.3c18.6,0,37.2,0,55.9,0c10.1,0,19.9,1.4,29.4,4.7c10.9,3.7,20.4,9.7,26.7,19.7c1.3,2.1,0.7,5.6-1.6,6.8
		c-8.2,4.3-16.7,8.3-24.6,13c-6,3.6-10.8,3.9-15.6-1.7c-1.2-1.4-3.3-2.3-5.2-2.7c-5.2-1.1-10.4-2.6-15.6-2.6
		c-34.6-0.2-69.2-0.2-103.8,0c-3.9,0-7.7,1.5-11.5,2.6c-2.3,0.6-4.2,3.6-4.2,6.2c0,2.8,1.2,5.2,3.7,6.6c2.3,1.2,4.8,2.2,7.4,2.8
		c2.6,0.6,5.3,0.6,7.9,0.7c36.6,1.4,73.1,2.9,109.6,4.1c8.7,0.3,17.2,1.2,25.5,3.8c1.3,0.4,2.6,0.6,3.8,1.1
		c22.3,8.6,31.9,28.3,28.1,51.2c-3.2,19-14.8,30.7-33.1,35.7c-7.7,2.1-15.5,3.5-23.6,3.5c-36.6-0.1-73.2-0.1-109.7,0
		c-10.1,0-19.9-1.7-29.6-4.2c-13.1-3.3-24.6-9.8-32.3-21.7c-2.6-4.1-2.2-8.1,1.7-10c10.1-5.1,20.2-10.1,30.3-15.1
		c2.7-1.3,4.6-0.8,7,1.8c0.9,1,1.6,2.1,2.5,3.1c3.6,4.3,8.1,6.8,13.7,7.1c4,0.2,8,0.6,11.9,0.6c33.9,0,67.8,0.1,101.8-0.1
		c4.6,0,9.3-0.7,13.7-1.8c2.6-0.6,4.1-3.2,4.7-5.9c0.8-4-1.7-8.6-5.5-9.3c-6.5-1.2-13.1-2.5-19.7-2.9c-13.3-0.8-26.6-0.8-39.9-1.4
		c-24.6-1.1-49.1-2.4-73.7-3.7c-9.5-0.5-18.3-3.2-26.5-7.7c-11.8-6.5-19.2-16.3-20.2-30c-0.4-5.3-0.4-10.6,0.1-15.9
		c1.2-13.6,8.4-23.6,20.1-30.2c7.6-4.3,15.7-7.2,24.5-7.8c6-0.4,12-0.5,17.9-0.5c16-0.1,31.9,0,47.9,0
		C1683,2205.3,1683,2205.3,1683,2205.3z"/>
	<path d="M1439.5,2205.6c31.9,0,63.8,0,95.6,0c4,0,7.9,0.2,11.9,0.4c2.5,0.1,4.9,2.6,5,5.2c0.1,9.9,0.1,19.9,0.1,29.9
		c0,0.6-0.1,1.4-0.4,1.9c-0.8,1-1.6,2.4-2.6,2.8c-2.5,0.7-5.2,1.2-7.8,1.2c-19.3,0.1-38.5,0-57.8,0.1c-5.3,0-10.6,0.1-15.9,0.2
		c-3.5,0.1-6,2.7-6,6.4c-0.1,24.6,0,49.1-0.1,73.7c0,9.3-0.2,18.6-0.4,27.9c0,2.4-2.7,4.8-5.2,4.9c-2,0.1-4,0.3-6,0.3
		c-28.9,0.4-31.8,0.2-32.9-2.7c-3.8-10.3-1.5-21-1.7-31.5c-0.4-20.6-0.1-41.2-0.1-61.8c0-4-0.1-8-0.2-11.9c-0.1-1.9-3.4-5.2-5.2-5.3
		c-4-0.1-8-0.2-11.9-0.2c-19.9,0-39.9,0-59.8,0c-3.3,0-6.6-0.2-9.9-0.8c-1-0.2-2.5-1.9-2.5-2.9c-0.1-11.3-0.1-22.6,0.3-33.8
		c0-1.2,2.5-3.2,4.1-3.4c4.6-0.5,9.3-0.4,13.9-0.4C1375.7,2205.6,1407.6,2205.6,1439.5,2205.6z"/>
	<path d="M1022.8,872c-1.2-5.2-0.5-9.9,3.5-13.8c0.4-0.4,1.2-0.9,1.7-0.8c0.4,0.1,0.8,0.9,1.1,1.4c1.5,3,1.7,6,0.7,9.2
		C1027.4,869.3,1025.1,870.7,1022.8,872z"/>
	<path d="M1933.3,856.9c-1.2-39.3-6.6-78.2-13.8-116.8c-11.4-60.9-28.9-120.1-52.8-177.3c-59.1-141.5-147.9-260.9-266.5-358.1
		c-91.6-75-193.9-130.1-307.2-164.9c-38.2-11.7-76.9-20.8-116.2-27.5c-27.6-4.7-55.3-8.5-83.1-10.2C1041.1-1,988.6-1,936.1,4.3
		C905,7.5,874,11.9,843.4,18.2C775.6,32.3,709.9,53.4,647.1,83c-193.4,91.2-338.4,232.4-434.9,423.2
		c-33.4,66.1-57.6,135.6-73.2,208.1c-5,23.4-9.2,46.9-12.5,70.7c-2.8,19.8-5.1,39.6-6.3,59.5c-1.9,31.2-2.6,62.5-1.4,93.8
		c0.8,20.6,1.6,41.2,4,61.7c2.2,19.2,4.3,38.3,8,57.3c0.7,3.9,1.2,7.9,2.2,11.7c0.2,0.7,2.5,1.7,3.2,1.4c6-2.9,11.8-6,17.6-9.2
		c23.4-12.7,47.4-23.9,73.1-31.4c37.8-11.2,75.7-13,114.2-3.2c18.8,4.8,36.8,11.2,54.4,19.1c24.9,11.2,48.5,24.8,71.6,39.3
		c20.9,13,41.5,26.4,62.3,39.6c18.5,11.8,37.3,23,57,32.8c12.5,6.2,25.3,11.7,38.8,15.5c12.2,3.4,24.6,6.3,37.3,5.3
		c14.6-1.1,28.9-4.1,42.6-9.8c3.3-1.4,5.4-3.4,5.5-7.3c0.5-14.6,0.5-29.3,1.7-43.9c2.1-25.2,2.8-50.5,5.4-75.6
		c2.8-27.8,5.9-55.6,9.9-83.2c4.9-33.5,11-66.8,18.1-100c13.3-62.5,30.5-123.8,52.8-183.6c22.1-59.3,49-116.3,82.8-169.9
		c30.7-48.7,66.7-92.9,110.3-130.7c11.5-10,22.2-21,35.3-29.1c2.1-1.3,5.7,2.3,36.3,30.2c35.6,32.4,66.5,68.9,93.4,108.8
		c34,50.3,61.5,104,84.7,160.1c25.1,60.9,44.7,123.7,59.9,187.7c8.4,35.6,15.6,71.4,21.2,107.5c3,19.7,6,39.4,8.3,59.3
		c2.8,23.1,5.2,46.3,7.2,69.4c2.5,29.9,3.7,59.8,4.2,89.7c0,1.3,0.1,2.7,0.3,4c0.3,2.9,2,4.8,4.6,5.8c5.6,2,11.2,4.4,16.9,5.9
		c16.2,4.2,32.4,6.2,49.3,2.8c15.8-3.2,30.7-8.4,45.4-14.8c18.3-7.9,36-17.3,53.1-27.4c24.6-14.6,49-29.5,73.4-44.3
		c20.5-12.4,41-24.6,62.3-35.5c15.4-7.9,31.1-15.1,47.4-20.9c20.1-7.2,40.8-12.2,62.2-13.1c25.6-1.1,50.1,4.7,74,13.5
		c22.5,8.3,43.7,19.4,64.4,31.4c5.8,3.3,11.4,6.8,17.2,10.1c3,1.7,6.7-0.2,7.3-3.7c5.2-27.5,9-55.2,11.4-83
		c2.2-26.5,2.7-53.2,4-79.1C1934.8,891.4,1933.8,874.1,1933.3,856.9z M1388,486.7c-1.6,1.9-4.2,3-6.4,4.2c-0.4,0.2-1.8,0-1.9-0.3
		c-1.6-7.6-7.9-13.9-5.5-22.5c1.3-4.6-1.4-7.4-4.7-10c-7.5-5.7-16-9.5-24.7-12.6c-14.5-5-29.6-7.2-44.8-8.4c-4-0.3-7.9-0.1-11.5,2.2
		c-4.2,2.7-8.9,2.2-13.5,1.3c-1.9-0.4-4.2-2.5-3.9-3.8c0.2-1.2,0.3-2.8,1.1-3.6c17-16.2,37-25.4,60.9-25.1c3.3,0,6.7,0,9.9,0.2
		c16.1,1.2,31.4,4.8,44.4,15.2c3.6,2.9,7.7,5.1,11.4,7.5c4.4-2.6,8.4-5,12.3-7.4c26.7-15.8,54.7-18.7,84.2-9.3
		c14.6,4.7,28.2,11.5,40.8,20.3c7.4,5.1,9.7,7.7,8.6,9.6c-2.7,4.6-7.7,5.2-11.9,6.5c-11,3.4-22.3,2.2-33.5,0.1
		c-7.8-1.5-15.7-2.6-23.6-3.6c-3.3-0.4-6.6-0.5-9.9-0.3c-6.9,0.5-12.9,2.8-16.7,9.1c-0.3,0.6-0.8,1-1.1,1.6
		c-5.6,10.2-14.1,15.5-25.9,15.2c-2-0.1-4,0.3-6,0.6C1405.4,475,1395.5,478.2,1388,486.7z M1779.8,684.5c-7.5,3.3-15.4,3.9-24.8,3.8
		c-8.9,0.8-18.4-2.6-27.8-5.8c-6.9-2.4-13.6-5.2-20.3-8.1c-9.8-4.2-20.1-6.8-30.5-9.1c-7.6-1.7-14.6,0.3-20.6,5
		c-3.7,2.9-7.1,6.1-10.3,9.4c-6.9,7.2-15.1,10.2-25.1,9.2c-7.3-0.8-14.6-0.4-21.9-1c-12.5-1.1-23.6,2.3-33.8,9.4
		c-2.7,1.9-5.5,3.6-8.3,5.4c-1.4,0.9-4.8-0.2-5-1.7c-1-8.5-2.1-17.1-2.7-25.6c-0.1-1.8,1.1-3.8,2.2-5.5c2.6-3.9,2.2-7.3-0.9-10.7
		c-7.9-9.1-17-16.7-27.2-23.2c-17-10.7-35.4-18.2-54.7-23.5c-14.7-4.1-29.8-6.8-45-8.4c-0.6-0.1-1.8-0.6-1.8-0.7
		c0.2-1.2,0.3-2.8,1.1-3.4c24.3-17.1,51-25,80.8-21.1c8.6,1.1,17,2.7,25.3,5.2c21.5,6.4,40.4,16.7,54.7,34.5
		c2.1,2.6,4.2,5.2,6.8,7.3c1.3,1,4,1.5,5.5,0.8c11.6-5.1,23.5-8.8,35.9-11.6c21.4-4.7,42.3-2.8,63,3.3c21.4,6.2,40.3,17.1,57.5,31
		c10.9,8.8,21,18.4,29.8,29.3C1783.6,681.2,1782.9,683.2,1779.8,684.5z"/>
	<path d="M780,2022.6c-3.9-15.3-13-25.9-27.1-32.3c-4.8-2.2-9.9-3.7-15.2-5.6c3.4-4.5,8.7-5.4,12.9-8.2c8.6-5.8,14.6-13.2,17.3-23.4
		c3.8-13.9,3.3-27.5-0.9-41.2c-3.2-10.6-9.3-19.2-18.2-25.4c-4.9-3.4-10.2-6.2-15.7-8.4c-10.5-4.4-21.5-7.1-32.8-7.7
		c-9.9-0.6-19.9-0.8-29.9-0.8c-80.5-0.1-160.9,0-241.4,0c-5.3,0-10.6,0.1-15.9,0.2c-3.7,0.1-5.6,2.3-5.7,6.5c-0.1,4-0.1,8-0.1,12
		c0,17.3,0,34.6,0,51.9c0,49.2,0,98.4,0,147.6c0,4,0.2,7.9,0.7,11.8c0.1,1,1.5,2.5,2.6,2.7c3.2,0.6,6.6,0.9,9.9,0.9
		c89.8,0,179.6,0.1,269.3,0c8.6,0,17.3-0.7,25.9-1.5c13.4-1.2,25.9-5.5,37.7-12c10.8-6,19.2-14.5,23.7-26
		C782.2,2050.4,783.6,2036.8,780,2022.6z M475.2,1926.3c0-1.2,2.5-2.9,4.1-3.4c1.8-0.6,3.9-0.4,5.9-0.4c62.3,0,124.7,0,187,0
		c6.7,0,13.2,0.2,19.6,2.7c7.9,3.1,11.3,7.7,11.4,16.6c0.1,10.2-3.6,15.2-13.3,16.5c-7.9,1-15.8,1.6-23.8,1.6
		c-29.2,0.2-58.4,0.1-87.5,0.1c-28.5,0-57,0-85.6,0c-4.6,0-9.3-0.2-13.9-0.3c-1.5,0-4.1-2.4-4.1-3.8
		C475,1946.1,474.9,1936.2,475.2,1926.3z M714.8,2032.1c0,1.3-0.2,2.6-0.4,4c-0.8,4.1-3.1,7.4-6.7,9.4c-4.1,2.2-8.4,4-13.2,4.1
		c-5.3,0.1-10.6,0.2-15.9,0.2c-30.5,0-61.1,0-91.6,0c-33.2,0-66.4,0-99.6,0c-3.3,0-6.6-0.2-9.8-0.7c-1-0.2-2.4-1.7-2.5-2.7
		c-0.7-10.6-1.4-21.2,0.4-31.7c0.2-1,1.6-2.4,2.6-2.5c3.2-0.5,6.5-0.8,9.8-0.8c27.9-0.1,55.8,0,83.7,0c35.9,0,71.7,0,107.6,0
		c7.3,0,14.6,0.2,21.8,2C710.2,2015.5,715.1,2022,714.8,2032.1z"/>
	<path d="M2071.9,2098.5c-1.6-2.9-3.5-5.6-5.5-8.3c-18.3-24.5-36.6-48.9-54.9-73.4c-35.1-46.7-70.2-93.5-105.1-140.3
		c-3.5-4.7-7.1-7.3-13.1-7.2c-17.3,0.3-34.6,0.2-51.8,0c-5.2-0.1-8.8,2.2-11.7,6.1c-15.1,20.2-30.1,40.5-45.3,60.7
		c-37,49.4-74.1,98.8-111.1,148.3c-3.2,4.2-6.3,8.5-9.3,12.9c-0.6,0.9-0.8,2.6-0.3,3.5c0.5,0.9,1.9,1.9,3,2
		c20.6,0.2,41.2,0.2,61.8,0.3c4.3,0,7.6-1.6,10.2-5.1c3.9-5.4,7.8-10.7,11.8-16c4-5.3,7.8-10.7,12-15.9c1.6-2.1,3.8-3.6,6.8-3.6
		c3.3,0,6.6-0.1,10-0.1c58.5,0,117,0,175.4,0c4,0,8,0.1,12,0.1c2.9,0,5,1.4,6.6,3.7c7.5,10.1,15.3,20.1,22.5,30.4
		c3.5,5,7.8,6.7,13.5,6.6c9.3-0.1,18.6,0,27.9,0v0c9.3,0,18.6,0.1,27.9,0c2,0,4-0.3,5.8-1.1
		C2071.6,2101.6,2072.4,2099.3,2071.9,2098.5z M1924.9,2007.3c-2.6,0.5-5.2,0.6-7.9,0.6c-16.6,0-33.1,0-49.7,0c0-0.1,0-0.2,0-0.3
		c-18.5,0-37.1,0-55.6,0c-1.5,0-3.2-3.3-2.4-4.6c2.2-3.2,4.3-6.6,6.7-9.8c11.5-15.4,23-30.8,34.6-46.1c5.2-6.8,10.6-13.5,15.9-20.3
		c7.5,2.5,9.8,10,14.6,15.1c1.3,1.5,2.4,3.2,3.6,4.8c12.7,16.9,25.5,33.9,38.2,50.8c1.6,2.1,2.9,4.4,3.8,6.8
		C1926.9,2005.1,1925.7,2007.1,1924.9,2007.3z"/>
	<path d="M1215.1,2098.7c-2-3.4-4.4-6.6-6.8-9.8c-43.8-58.5-87.5-116.9-131.3-175.4c-7.6-10.1-15.1-20.2-22.7-30.3
		c-12.2-16.2-6.9-13.5-29.6-13.8c-12.6-0.1-25.2,0-37.9,0c-2,0-4-0.1-6,0.4c-1.9,0.4-3.8,1.2-5.2,2.4c-1.9,1.8-3.3,4.1-5,6.2
		c-53.7,71.8-107.4,143.5-161.2,215.3c-0.8,1.1-1.5,2.2-2.3,3.2c-1,1.2-1.2,2.5-0.2,3.6c0.8,0.9,1.9,2.1,2.9,2.1
		c20.6,0.2,41.2,0.3,61.8,0.4c4.3,0,7.6-1.7,10.1-5.2c7.8-10.7,15.8-21.3,23.7-32c1.7-2.3,3.9-3.5,6.8-3.4c3.3,0,6.6-0.1,10-0.1
		c59.1,0,118.3-0.1,177.4,0c13.9,0,12.5-2.3,22.7,11.8c5.8,8.1,11.8,16,17.7,24.1c2.6,3.5,6,5,10.3,5c10,0,19.9,0,29.9,0v0
		c9.3,0,18.6,0.1,27.9,0c1.9,0,4-0.3,5.7-1.1C1214.6,2101.6,1215.5,2099.4,1215.1,2098.7z M1067.8,2007c-2.5,0.6-5.1,0.9-7.7,0.9
		c-17.2,0.1-34.5,0-51.7,0c-13.9,0-27.8,0.2-41.7-0.1c-5-0.1-10.6,2.2-15-2.2c0.1-5.1,4.2-8,6.8-11.6c15.4-20.7,31-41.3,46.6-62
		c1.2-1.6,2.5-3.2,4-4.3c0.8-0.6,2.5-0.5,3.5-0.1c1.1,0.5,1.9,1.8,2.7,2.8c17.1,22.8,34.2,45.5,51.3,68.4c1.2,1.5,2.2,3.3,2.7,5.1
		C1069.5,2004.8,1068.6,2006.9,1067.8,2007z"/>
	<path d="M1041.1,2267.8c-4.1-26.1-18.1-45.2-43.3-55.1c-9.9-3.9-20.1-6.7-30.9-7.1c-9.3-0.3-18.6-0.4-27.9-0.4
		c-29.2,0-58.5,0.1-87.7,0c-12,0-23.9,1.2-35.3,5c-24.4,8-41.1,23.9-47.9,49c-3,11-2.9,22.4-2,33.7c2.4,29.3,17.2,49.6,44.6,60.4
		c13.1,5.1,26.8,7.5,40.9,7.5c17.3,0,34.6,0,51.8,0c0,0,0,0,0,0c17.9,0,35.9,0.1,53.8,0c14.8-0.1,29.2-2.9,42.7-8.7
		c20-8.6,33.2-23.4,39.1-44.8C1042.7,2294.1,1043.2,2280.9,1041.1,2267.8z M994.6,2299.7c-3.5,8.6-9.7,14.4-18.2,17.2
		c-6.9,2.3-14.1,3.8-21.5,3.8c-33.9-0.1-67.9-0.1-101.8,0c-7.4,0-14.6-1.4-21.5-3.7c-11.7-3.9-18.6-12.6-20.7-24.7
		c-1-5.8-0.9-12-0.1-17.9c1.6-12,8.1-20.7,19.6-25.5c7-2.9,14.1-3.6,21.5-3.6c17.3,0,34.6,0,51.9,0l0,0c17.3,0,34.6,0,51.9,0
		c7.3,0,14.5,0.8,21.5,3.6c8.4,3.5,14.4,9.2,17.8,17.7C999.1,2277.7,999,2288.6,994.6,2299.7z"/>
	<path d="M1307.2,2356.6c-0.9-2.5-2.1-4.9-3.5-7.1c-8.1-12.2-16.2-24.3-24.4-36.5c-1-1.5-0.5-3.9,1.1-5.1c2.7-1.9,5.5-3.7,8.2-5.6
		c10.4-7.5,15.3-18.3,16.8-30.5c0.8-6.5,0.8-13.3,0.1-19.9c-1.6-15.4-8.8-27.8-22.6-35.5c-5.2-2.9-10.8-5-16.4-6.9
		c-9.5-3.3-19.5-3.9-29.5-3.9c-24.6,0-49.2,0-73.9,0v0c-26.6,0-53.2,0-79.9,0c-3.3,0-6.7,0.1-9.9,0.6c-1,0.2-2.5,1.6-2.7,2.7
		c-0.5,3.3-0.7,6.6-0.7,9.9c0,42.6,0,85.2,0,127.7c0,2.7,0.1,5.3,0.2,8c0.1,2.9,2.3,5.5,4.7,5.5c11.3,0.1,22.6,0.1,33.9,0.1
		c2.5,0,5-2.6,5-5.2c0.2-6,0.2-12,0.4-17.9c0.1-5.3,0.2-10.6,0.3-16c0-1.4,2.5-3.7,4-3.7c11.3-0.2,22.6-0.4,33.9-0.4
		c25.3,0,50.6,0.1,75.9,0.1c2.9,0,5.2,1,6.7,3.4c4,6.1,7.8,12.3,11.9,18.4c17.5,26,8.3,21.1,39.1,21.6c6.6,0.1,13.3-0.3,19.9-0.7
		C1306.3,2359.6,1307.5,2357.4,1307.2,2356.6z M1249.4,2276.9c-5.9,0.8-11.9,1-17.8,1.1c-16.6,0.1-33.1,0-49.7,0
		c-19.2,0-38.4,0-57.6,0c-2,0-4.1,0.2-5.9-0.5c-1.6-0.6-3.8-2.3-3.8-3.6c-0.4-7.9-0.2-15.9-0.2-23.8c0-2.5,2.4-4.5,5.3-4.6
		c2-0.1,4-0.2,6-0.2c35.1,0,70.2,0,105.3,0c4.6,0,9.3,0.1,13.9,0.5c2.6,0.2,5.2,1.1,7.6,2c6.3,2.3,9.3,6.8,9.4,13.7
		C1262,2269.5,1257.2,2275.8,1249.4,2276.9z"/>
	<path d="M746.8,2250c-2.1-13.9-9-24.8-20.8-32.4c-5.6-3.6-11.6-6.3-18.1-8.1c-10.3-2.9-20.8-4-31.5-4c-24.6,0.1-49.1,0-73.7,0l0,0
		c-25.9,0-51.8,0-77.7,0c-3.3,0-6.6,0.2-9.9,0.7c-1.1,0.2-2.4,1.4-2.8,2.5c-0.7,1.8-0.9,3.8-0.9,5.8c0,45.1-0.1,90.3,0,135.4
		c0,2-0.1,4.1,0.7,5.9c0.7,1.6,2.5,3.7,3.9,3.8c11.9,0.3,23.8,0.3,35.7,0.1c1,0,2.4-1.4,2.8-2.5c0.7-1.8,1.1-3.8,1.1-5.8
		c0.1-7.3,0.1-14.6,0.2-21.9c0.1-5,2.5-7.6,6.9-7.7c4.6-0.1,9.3-0.1,13.9-0.1c29.9,0,59.8,0,89.6,0c8.6,0,17.3-0.1,25.9-0.7
		c12.1-0.9,23.4-4.5,33.7-11c11.9-7.5,18.7-18.5,20.9-32.4C748.2,2268.5,748.2,2259.2,746.8,2250z M694.4,2278.3
		c-3.1,1.1-6.3,2.3-9.5,2.6c-5.3,0.5-10.6,0.5-15.9,0.6c-15.9,0.1-31.8,0-47.7,0c-17.2,0-34.5,0-51.7,0c-3.3,0-6.7,0-9.8-0.7
		c-1.5-0.4-3.4-2.6-3.5-4c-0.3-8.6-0.2-17.2-0.2-25.8c0-2.5,2.5-4.8,5.1-5c1.3-0.1,2.6-0.3,4-0.3c36.5,0,72.9,0,109.3,0
		c6.6,0,13.2,0.3,19.5,3c6.6,2.9,9.7,7.5,9.5,15.7C703.4,2271,700.7,2275.9,694.4,2278.3z"/>
</g>
</svg>
