<?xml version="1.0" encoding="utf-8"?>
<!-- Generator: Adobe Illustrator 24.2.1, SVG Export Plug-In . SVG Version: 6.00 Build 0)  -->
<svg version="1.1" id="Camada_1" xmlns="http://www.w3.org/2000/svg" xmlns:xlink="http://www.w3.org/1999/xlink" x="0px" y="0px"
	 viewBox="0 0 110 110" style="enable-background:new 0 0 110 110;" xml:space="preserve">
<g>
	<path d="M20.4,74.4c2.1,0.9,4.3,1.5,6.7,1.5c2.4,0,4.7-0.5,6.8-1.5c2.1-1,4.5-1.5,7-1.5c2.5,0,4.9,0.6,7,1.5
		c2.1,0.9,4.4,1.5,6.8,1.5c2.4,0,4.7-0.5,6.8-1.5c2.1-1,4.5-1.5,7-1.5c2.5,0,4.9,0.6,7,1.5c2.1,0.9,4.4,1.5,6.8,1.5
		c2.4,0,4.7-0.5,6.8-1.5c2.1-1,4.5-1.5,7-1.5c0.6,0,1.3,0,1.9,0.1l11.3-11.3c-1.5-14.6-45.3-39-45.3-39c-0.5-0.5-1.1-0.7-1.8-0.7
		h-9.9c-1.4,0-2.5,1.1-2.5,2.5c0,1.4,1.1,2.5,2.5,2.5H61l7.4,7.4L56.1,46.8H22.3c-10,0-20.5,4.7-22,14.9l8,12
		c1.6-0.5,3.4-0.8,5.2-0.8C16,72.9,18.3,73.4,20.4,74.4z"/>
	<path d="M110,88c-2.4,0-4.7-0.5-6.8-1.5c-2.1-1-4.5-1.6-7-1.6c-2.5,0-4.9,0.6-7,1.6c-2.1,0.9-4.4,1.5-6.8,1.5
		c-2.4,0-4.7-0.5-6.8-1.5c-2.1-1-4.5-1.6-7-1.6c-2.5,0-4.8,0.6-7,1.6C59.7,87.5,57.4,88,55,88c-2.4,0-4.7-0.5-6.8-1.5
		c-2.1-1-4.5-1.6-7-1.6c-2.5,0-4.8,0.6-7,1.6c-2.1,0.9-4.4,1.5-6.8,1.5s-4.7-0.5-6.7-1.5c-2.1-1-4.5-1.6-7-1.6s-4.8,0.6-7,1.6
		C4.7,87.5,2.4,88,0,88V77.8c2.4,0,4.7-0.5,6.8-1.5c2.1-1,4.5-1.5,7-1.5s4.8,0.6,7,1.5c2.1,0.9,4.3,1.5,6.7,1.5s4.7-0.5,6.8-1.5
		c2.1-1,4.5-1.5,7-1.5c2.5,0,4.9,0.6,7,1.5c2.1,0.9,4.4,1.5,6.8,1.5c2.4,0,4.7-0.5,6.8-1.5c2.1-1,4.5-1.5,7-1.5c2.5,0,4.9,0.6,7,1.5
		c2.1,0.9,4.4,1.5,6.8,1.5c2.4,0,4.7-0.5,6.8-1.5c2.1-1,4.5-1.5,7-1.5c2.5,0,4.8,0.6,7,1.5c2.1,0.9,4.4,1.5,6.8,1.5V88z"/>
</g>
</svg>
