<?xml version="1.0" encoding="utf-8"?>
<!-- Generator: Adobe Illustrator 24.2.1, SVG Export Plug-In . SVG Version: 6.00 Build 0)  -->
<svg version="1.1" id="Camada_1" xmlns="http://www.w3.org/2000/svg" xmlns:xlink="http://www.w3.org/1999/xlink" x="0px" y="0px"
	 viewBox="0 0 110 119" style="enable-background:new 0 0 110 119;" xml:space="preserve">
<desc>Created with Sketch.</desc>
<g>
	<path d="M107.2,50.8c-0.8,0-2.4-0.1-4.6-0.2c-3.7-0.1-7.7-0.3-12.1-0.4c-3.6-0.1-7.2-0.2-10.8-0.2C68.2,37.6,50.7,28,33,24.3
		c0,0-0.1,0-0.1,0c-0.1,0-0.2,0-0.3,0c-0.1,0-0.2,0-0.3,0c-0.1,0-0.2,0-0.3,0c-0.1,0-0.2,0-0.3,0.1c-0.1,0-0.2,0-0.3,0.1
		c-0.1,0-0.2,0.1-0.3,0.1c-0.1,0-0.2,0.1-0.2,0.1c-0.1,0-0.2,0.1-0.2,0.1c-0.1,0.1-0.2,0.1-0.2,0.2c-0.1,0.1-0.1,0.1-0.2,0.2
		c-0.1,0.1-0.1,0.1-0.2,0.2c-0.1,0.1-0.1,0.2-0.2,0.3c0,0-0.1,0.1-0.1,0.1c-3.7,6.6-4.6,8.4-5.7,11c-0.6,1.5-1.2,3-1.7,4.8
		c-0.7,2.2-1.2,4.1-2.6,10.2c-2.4,0.3-4.6,0.5-6.6,0.9c-1.2,0.2-2.1,1-2.4,2.2c-2.1,8.4-4.4,17.9-7,28.5c0.9-0.2,1.8-0.5,2.7-0.9
		c2.1-0.9,4.3-1.5,6.7-1.5c2.4,0,4.7,0.6,6.7,1.5c2,0.9,4.2,1.4,6.5,1.4s4.5-0.5,6.5-1.4c2-0.9,4.3-1.5,6.7-1.5
		c2.4,0,4.7,0.6,6.7,1.5c2,0.9,4.2,1.4,6.5,1.4c2.3,0,4.5-0.5,6.5-1.4c2-0.9,4.3-1.5,6.7-1.5c2.4,0,4.7,0.6,6.7,1.5
		c2,0.9,4.2,1.4,6.5,1.4c2.3,0,4.5-0.5,6.5-1.4c2-0.9,4.3-1.5,6.7-1.5c0.3,0,0.5,0,0.8,0c6.5-2.8,10.8-7,13.4-12.6l1.9-5.8
		c0.6-2.7,1-5.6,1.1-8.7C110.1,52.2,108.8,50.9,107.2,50.8z M53.6,50c-10.5,0.2-19.8,0.5-27.7,1.1c1.1-4.4,1.5-6.1,2.1-8
		c0.5-1.6,0.9-3,1.5-4.2c0.9-2.1,1.7-3.7,4.3-8.5C47.7,33.8,61.3,40.9,71.3,50C65.3,49.9,59.4,49.9,53.6,50z"/>
	<path d="M106,94.8c-2.3,0-4.6-0.5-6.5-1.4c-2-1-4.3-1.5-6.7-1.5c-2.4,0-4.7,0.6-6.7,1.5c-2,0.9-4.2,1.4-6.5,1.4
		c-2.3,0-4.5-0.5-6.5-1.4c-2-1-4.3-1.5-6.7-1.5c-2.4,0-4.7,0.6-6.7,1.5c-2,0.9-4.2,1.4-6.5,1.4c-2.3,0-4.5-0.5-6.5-1.4
		c-2-1-4.3-1.5-6.7-1.5c-2.4,0-4.7,0.6-6.7,1.5c-2,0.9-4.2,1.4-6.5,1.4S22,94.3,20,93.4c-2.1-1-4.3-1.5-6.7-1.5s-4.7,0.6-6.7,1.5
		c-2,0.9-4.2,1.4-6.5,1.4V85c2.3,0,4.5-0.5,6.5-1.4c2.1-0.9,4.3-1.5,6.7-1.5s4.7,0.6,6.7,1.5c2,0.9,4.2,1.4,6.5,1.4s4.5-0.5,6.5-1.4
		c2-0.9,4.3-1.5,6.7-1.5c2.4,0,4.7,0.6,6.7,1.5c2,0.9,4.2,1.4,6.5,1.4c2.3,0,4.5-0.5,6.5-1.4c2-0.9,4.3-1.5,6.7-1.5
		c2.4,0,4.7,0.6,6.7,1.5c2,0.9,4.2,1.4,6.5,1.4c2.3,0,4.5-0.5,6.5-1.4c2-0.9,4.3-1.5,6.7-1.5c2.4,0,4.7,0.6,6.7,1.5
		c2,0.9,4.2,1.4,6.5,1.4V94.8z"/>
</g>
</svg>
