<?xml version="1.0" encoding="utf-8"?>
<!-- Generator: Adobe Illustrator 24.2.1, SVG Export Plug-In . SVG Version: 6.00 Build 0)  -->
<svg version="1.1" id="Camada_1" xmlns="http://www.w3.org/2000/svg" xmlns:xlink="http://www.w3.org/1999/xlink" x="0px" y="0px"
	 viewBox="0 0 100 100" style="enable-background:new 0 0 100 100;" xml:space="preserve">
<style type="text/css">
	.st0{fill:#FFFFFF;}
</style>
<path class="st0" d="M93.1,6.8L93.1,6.8c-7.9-7.9-21.6-7-30.6,2l-2.3,2.3c-0.5-0.1-0.9-0.2-1.4-0.1c-1.4,0.1-2.7,0.7-3.8,1.8
	l-4.9,4.9c-1,1-1.7,2.4-1.8,3.8c0,0.5,0,1,0.1,1.4L23.2,48.2c-1.7-0.4-3.7,0.2-5.2,1.6l-4.9,4.9c-1,1-1.7,2.4-1.8,3.8
	c0,0.5,0,1,0.1,1.4l-2.7,2.7c-9,9-9.9,22.7-2,30.6l0,0c7.9,7.9,21.6,7,30.6-2l2.9-2.9c0.3,0,0.6,0,0.8,0c1.4-0.1,2.7-0.7,3.8-1.8
	l4.9-4.9c1.3-1.3,1.9-3,1.7-4.6l25.8-25.8c0.3,0,0.6,0,0.8,0c1.3-0.1,2.7-0.7,3.8-1.7l4.9-4.9c1-1,1.7-2.4,1.8-3.8
	c0-0.3,0-0.6,0-0.8l2.5-2.5C100.2,28.4,101,14.7,93.1,6.8z M31.7,65.4c0.7-0.7,1.8-0.8,2.4-0.2c0.3,0.3,0.4,0.7,0.4,1.2
	c0,0.5-0.2,0.9-0.6,1.2L33.6,68l-2.2-2.2L31.7,65.4z M38,80.9c-0.2-0.2-0.2-0.5-0.2-0.6c0-0.1,0.1-0.4,0.3-0.6l1.6-1.6L21.6,60
	l-1.6,1.6C19.6,62,19,62,18.7,61.7l-2.9-2.9c-0.2-0.2-0.2-0.5-0.2-0.6c0-0.1,0.1-0.4,0.3-0.6l4.9-4.9c0.2-0.2,0.4-0.3,0.6-0.3
	s0.4,0.1,0.6,0.2l2.9,2.9c0.2,0.2,0.2,0.5,0.2,0.6c0,0.1-0.1,0.4-0.3,0.6l-1.8,1.8l18.1,18.1l1.8-1.8c0.2-0.2,0.5-0.3,0.6-0.3
	c0.1,0,0.4,0,0.6,0.2l2.9,2.9c0.3,0.3,0.3,0.9-0.1,1.2L42,83.7c-0.2,0.2-0.5,0.3-0.6,0.3c-0.1,0-0.4,0-0.6-0.2L38,80.9z M68.3,33.8
	c-0.7,0.7-1.8,0.8-2.4,0.2c-0.6-0.6-0.6-1.7,0.2-2.4l0.3-0.3l2.2,2.2L68.3,33.8z M75,43.8c-0.2-0.2-0.2-0.5-0.2-0.6
	c0-0.1,0.1-0.4,0.3-0.6l1.7-1.7L58.7,22.8L57,24.5c-0.2,0.2-0.5,0.3-0.6,0.3c-0.1,0-0.4,0-0.6-0.2l0,0l-2.9-2.9
	c-0.2-0.2-0.2-0.5-0.2-0.6c0-0.1,0.1-0.4,0.3-0.6l4.9-4.9c0.2-0.2,0.5-0.3,0.6-0.3c0.1,0,0.4,0,0.6,0.2l2.9,2.9
	c0.2,0.2,0.2,0.5,0.2,0.6c0,0.1-0.1,0.4-0.3,0.6l-1.7,1.7l18.1,18.1l1.7-1.7c0.2-0.2,0.4-0.3,0.6-0.3c0.2,0,0.4,0.1,0.6,0.2l2.9,2.9
	c0.2,0.2,0.2,0.5,0.2,0.6c0,0.1-0.1,0.4-0.3,0.6l-4.9,4.9c-0.4,0.4-0.9,0.4-1.2,0.1L75,43.8z"/>
</svg>
