<?xml version="1.0" encoding="utf-8"?>
<!-- Generator: Adobe Illustrator 24.2.1, SVG Export Plug-In . SVG Version: 6.00 Build 0)  -->
<svg version="1.1" id="Camada_1" xmlns:dc="http://purl.org/dc/elements/1.1/"
	 xmlns="http://www.w3.org/2000/svg" xmlns:xlink="http://www.w3.org/1999/xlink" x="0px" y="0px" viewBox="0 0 110 110"
	 style="enable-background:new 0 0 110 110;" xml:space="preserve">
<g>
	<desc  property="dc:creator">rokma</desc>
	<path d="M21.1,91.8c-1,4-3.6,7-8.2,4.3c-4.5-2.7-3.1-6.4-0.1-9.2l9.5-8.9l27.9-47.1l-0.5-1.6l1.7-0.5l2.1,1.2l0.4,1.7l-1.6,0.4
		L24.3,79.2C24.3,79.2,22,87.8,21.1,91.8L21.1,91.8z"/>
	<path d="M95,1.2C93.6,0.4,92.1,0,90.5,0c-2.7,0-5,1.2-6.1,1.9C73.2,8.9,56.6,33,46,52.4C20.4,99.1,30.5,108,32.8,109.3
		c0.9,0.5,1.9,0.7,3,0.7c5.1,0,16.9-5.1,39-39C87.8,51,99.6,22.2,100,9.5C100,7.9,99.6,3.8,95,1.2z M33.9,83.7l3.9-5.6
		c0.5-0.7,1.5-0.9,2.3-0.4c0.8,0.5,1,1.6,0.5,2.4l-3.9,5.6c-0.3,0.5-0.8,0.7-1.4,0.7c-0.4,0-0.7-0.1-1-0.3
		C33.5,85.5,33.4,84.5,33.9,83.7z M44.1,92.8l-5.6,9.8c-0.5,0.8-1.5,1.1-2.3,0.6c-0.8-0.5-1.1-1.5-0.6-2.3l5.6-9.8c0,0,0,0,0,0
		c0.5-0.8,1.5-1.1,2.3-0.6c0,0,0,0,0,0C44.2,91,44.5,92,44.1,92.8z M57.7,89.3l-3,6.2c-0.4,0.9-1.5,1.2-2.3,0.8
		c-0.9-0.4-1.2-1.5-0.8-2.3l3-6.2c0,0,0,0,0,0c0.4-0.8,1.5-1.2,2.3-0.8c0,0,0,0,0,0C57.8,87.4,58.1,88.5,57.7,89.3z"/>
</g>
</svg>
